<?xml version="1.0" encoding="utf-8" standalone="no"?>
<!DOCTYPE svg PUBLIC "-//W3C//DTD SVG 1.1//EN"
  "http://www.w3.org/Graphics/SVG/1.1/DTD/svg11.dtd">
<svg xmlns:xlink="http://www.w3.org/1999/xlink" width="482.82301pt" height="329.311547pt" viewBox="0 0 482.82301 329.311547" xmlns="http://www.w3.org/2000/svg" version="1.1">
 <metadata>
  <rdf:RDF xmlns:dc="http://purl.org/dc/elements/1.1/" xmlns:cc="http://creativecommons.org/ns#" xmlns:rdf="http://www.w3.org/1999/02/22-rdf-syntax-ns#">
   <cc:Work>
    <dc:type rdf:resource="http://purl.org/dc/dcmitype/StillImage"/>
    <dc:date>2026-07-16T16:45:34.932346</dc:date>
    <dc:format>image/svg+xml</dc:format>
    <dc:creator>
     <cc:Agent>
      <dc:title>Matplotlib v3.9.4, https://matplotlib.org/</dc:title>
     </cc:Agent>
    </dc:creator>
   </cc:Work>
  </rdf:RDF>
 </metadata>
 <defs>
  <style type="text/css">*{stroke-linejoin: round; stroke-linecap: butt}</style>
 </defs>
 <g id="figure_1">
  <g id="patch_1">
   <path d="M 0 329.311547 
L 482.82301 329.311547 
L 482.82301 0 
L 0 0 
z
" style="fill: #ffffff"/>
  </g>
  <g id="axes_1">
   <g id="patch_2">
    <path d="M 66.816 237.7995 
L 468.576 237.7995 
L 468.576 20.0715 
L 66.816 20.0715 
z
" style="fill: #ffffff"/>
   </g>
   <g id="PathCollection_1">
    <path d="M 214.533983 44.564129 
C 215.832135 44.564129 217.077292 44.048368 217.995224 43.130436 
C 218.913156 42.212505 219.428917 40.967347 219.428917 39.669195 
C 219.428917 38.371044 218.913156 37.125886 217.995224 36.207954 
C 217.077292 35.290023 215.832135 34.774261 214.533983 34.774261 
C 213.235831 34.774261 211.990674 35.290023 211.072742 36.207954 
C 210.15481 37.125886 209.639049 38.371044 209.639049 39.669195 
C 209.639049 40.967347 210.15481 42.212505 211.072742 43.130436 
C 211.990674 44.048368 213.235831 44.564129 214.533983 44.564129 
z
" clip-path="url(#p525bf59329)" style="fill: #b64342; fill-opacity: 0.82; stroke: #ffffff; stroke-opacity: 0.82; stroke-width: 0.4"/>
    <path d="M 251.627481 34.665249 
C 252.651244 34.665249 253.633215 34.258504 254.357125 33.534594 
C 255.081036 32.810683 255.487781 31.828713 255.487781 30.804949 
C 255.487781 29.781185 255.081036 28.799215 254.357125 28.075304 
C 253.633215 27.351394 252.651244 26.944649 251.627481 26.944649 
C 250.603717 26.944649 249.621746 27.351394 248.897836 28.075304 
C 248.173926 28.799215 247.76718 29.781185 247.76718 30.804949 
C 247.76718 31.828713 248.173926 32.810683 248.897836 33.534594 
C 249.621746 34.258504 250.603717 34.665249 251.627481 34.665249 
z
" clip-path="url(#p525bf59329)" style="fill: #3775ba; fill-opacity: 0.82; stroke: #ffffff; stroke-opacity: 0.82; stroke-width: 0.4"/>
    <path d="M 290.700857 37.92567 
C 291.314844 37.92567 291.903767 37.68173 292.337921 37.247575 
C 292.772076 36.81342 293.016016 36.224498 293.016016 35.61051 
C 293.016016 34.996523 292.772076 34.4076 292.337921 33.973446 
C 291.903767 33.539291 291.314844 33.295351 290.700857 33.295351 
C 290.086869 33.295351 289.497947 33.539291 289.063792 33.973446 
C 288.629637 34.4076 288.385697 34.996523 288.385697 35.61051 
C 288.385697 36.224498 288.629637 36.81342 289.063792 37.247575 
C 289.497947 37.68173 290.086869 37.92567 290.700857 37.92567 
z
" clip-path="url(#p525bf59329)" style="fill: #8f8f8f; fill-opacity: 0.82; stroke: #ffffff; stroke-opacity: 0.82; stroke-width: 0.4"/>
    <path d="M 281.475782 35.031837 
C 282.207511 35.031837 282.909368 34.741118 283.426779 34.223707 
C 283.94419 33.706296 284.234909 33.004439 284.234909 32.27271 
C 284.234909 31.540981 283.94419 30.839123 283.426779 30.321712 
C 282.909368 29.804302 282.207511 29.513583 281.475782 29.513583 
C 280.744053 29.513583 280.042195 29.804302 279.524784 30.321712 
C 279.007374 30.839123 278.716655 31.540981 278.716655 32.27271 
C 278.716655 33.004439 279.007374 33.706296 279.524784 34.223707 
C 280.042195 34.741118 280.744053 35.031837 281.475782 35.031837 
z
" clip-path="url(#p525bf59329)" style="fill: #9a4d8e; fill-opacity: 0.82; stroke: #ffffff; stroke-opacity: 0.82; stroke-width: 0.4"/>
    <path d="M 278.692409 38.082855 
C 279.456107 38.082855 280.188628 37.779435 280.728643 37.239419 
C 281.268659 36.699404 281.572079 35.966882 281.572079 35.203185 
C 281.572079 34.439488 281.268659 33.706967 280.728643 33.166951 
C 280.188628 32.626935 279.456107 32.323515 278.692409 32.323515 
C 277.928712 32.323515 277.196191 32.626935 276.656175 33.166951 
C 276.11616 33.706967 275.81274 34.439488 275.81274 35.203185 
C 275.81274 35.966882 276.11616 36.699404 276.656175 37.239419 
C 277.196191 37.779435 277.928712 38.082855 278.692409 38.082855 
z
" clip-path="url(#p525bf59329)" style="fill: #8f8f8f; fill-opacity: 0.82; stroke: #ffffff; stroke-opacity: 0.82; stroke-width: 0.4"/>
    <path d="M 286.736292 33.5331 
C 287.403431 33.5331 288.043336 33.268042 288.515075 32.796304 
C 288.986813 32.324565 289.25187 31.684661 289.25187 31.017522 
C 289.25187 30.350382 288.986813 29.710478 288.515075 29.238739 
C 288.043336 28.767001 287.403431 28.501943 286.736292 28.501943 
C 286.069153 28.501943 285.429249 28.767001 284.95751 29.238739 
C 284.485771 29.710478 284.220714 30.350382 284.220714 31.017522 
C 284.220714 31.684661 284.485771 32.324565 284.95751 32.796304 
C 285.429249 33.268042 286.069153 33.5331 286.736292 33.5331 
z
" clip-path="url(#p525bf59329)" style="fill: #b64342; fill-opacity: 0.82; stroke: #ffffff; stroke-opacity: 0.82; stroke-width: 0.4"/>
    <path d="M 279.860615 32.79793 
C 280.61106 32.79793 281.330871 32.499774 281.861516 31.969129 
C 282.392162 31.438484 282.690317 30.718673 282.690317 29.968227 
C 282.690317 29.217781 282.392162 28.497971 281.861516 27.967326 
C 281.330871 27.43668 280.61106 27.138525 279.860615 27.138525 
C 279.110169 27.138525 278.390358 27.43668 277.859713 27.967326 
C 277.329067 28.497971 277.030912 29.217781 277.030912 29.968227 
C 277.030912 30.718673 277.329067 31.438484 277.859713 31.969129 
C 278.390358 32.499774 279.110169 32.79793 279.860615 32.79793 
z
" clip-path="url(#p525bf59329)" style="fill: #8f8f8f; fill-opacity: 0.82; stroke: #ffffff; stroke-opacity: 0.82; stroke-width: 0.4"/>
    <path d="M 271.510884 33.896361 
C 272.351468 33.896361 273.157737 33.562393 273.75212 32.968011 
C 274.346502 32.373628 274.68047 31.567359 274.68047 30.726776 
C 274.68047 29.886192 274.346502 29.079923 273.75212 28.48554 
C 273.157737 27.891158 272.351468 27.55719 271.510884 27.55719 
C 270.670301 27.55719 269.864032 27.891158 269.269649 28.48554 
C 268.675267 29.079923 268.341299 29.886192 268.341299 30.726776 
C 268.341299 31.567359 268.675267 32.373628 269.269649 32.968011 
C 269.864032 33.562393 270.670301 33.896361 271.510884 33.896361 
z
" clip-path="url(#p525bf59329)" style="fill: #9a4d8e; fill-opacity: 0.82; stroke: #ffffff; stroke-opacity: 0.82; stroke-width: 0.4"/>
    <path d="M 290.652141 42.799007 
C 291.266809 42.799007 291.856385 42.554797 292.291022 42.120161 
C 292.725658 41.685524 292.969868 41.095948 292.969868 40.48128 
C 292.969868 39.866612 292.725658 39.277036 292.291022 38.8424 
C 291.856385 38.407763 291.266809 38.163553 290.652141 38.163553 
C 290.037473 38.163553 289.447897 38.407763 289.013261 38.8424 
C 288.578624 39.277036 288.334414 39.866612 288.334414 40.48128 
C 288.334414 41.095948 288.578624 41.685524 289.013261 42.120161 
C 289.447897 42.554797 290.037473 42.799007 290.652141 42.799007 
z
" clip-path="url(#p525bf59329)" style="fill: #8f8f8f; fill-opacity: 0.82; stroke: #ffffff; stroke-opacity: 0.82; stroke-width: 0.4"/>
    <path d="M 250.939374 41.034649 
C 251.968894 41.034649 252.956386 40.625617 253.684366 39.897637 
C 254.412346 39.169656 254.821379 38.182165 254.821379 37.152645 
C 254.821379 36.123125 254.412346 35.135633 253.684366 34.407653 
C 252.956386 33.679673 251.968894 33.27064 250.939374 33.27064 
C 249.909855 33.27064 248.922363 33.679673 248.194382 34.407653 
C 247.466402 35.135633 247.05737 36.123125 247.05737 37.152645 
C 247.05737 38.182165 247.466402 39.169656 248.194382 39.897637 
C 248.922363 40.625617 249.909855 41.034649 250.939374 41.034649 
z
" clip-path="url(#p525bf59329)" style="fill: #b64342; fill-opacity: 0.82; stroke: #ffffff; stroke-opacity: 0.82; stroke-width: 0.4"/>
    <path d="M 286.855495 37.15808 
C 287.521098 37.15808 288.159529 36.893633 288.630181 36.42298 
C 289.100833 35.952328 289.36528 35.313897 289.36528 34.648294 
C 289.36528 33.982691 289.100833 33.34426 288.630181 32.873608 
C 288.159529 32.402955 287.521098 32.138509 286.855495 32.138509 
C 286.189892 32.138509 285.551461 32.402955 285.080808 32.873608 
C 284.610156 33.34426 284.345709 33.982691 284.345709 34.648294 
C 284.345709 35.313897 284.610156 35.952328 285.080808 36.42298 
C 285.551461 36.893633 286.189892 37.15808 286.855495 37.15808 
z
" clip-path="url(#p525bf59329)" style="fill: #9a4d8e; fill-opacity: 0.82; stroke: #ffffff; stroke-opacity: 0.82; stroke-width: 0.4"/>
   </g>
   <g id="PathCollection_2">
    <path d="M 85.077818 65.328988 
C 86.867349 65.328988 88.583826 64.618 89.849215 63.352611 
C 91.114605 62.087221 91.825593 60.370744 91.825593 58.581213 
C 91.825593 56.791683 91.114605 55.075206 89.849215 53.809816 
C 88.583826 52.544427 86.867349 51.833439 85.077818 51.833439 
C 83.288287 51.833439 81.57181 52.544427 80.306421 53.809816 
C 79.041032 55.075206 78.330044 56.791683 78.330044 58.581213 
C 78.330044 60.370744 79.041032 62.087221 80.306421 63.352611 
C 81.57181 64.618 83.288287 65.328988 85.077818 65.328988 
z
" clip-path="url(#p525bf59329)" style="fill: #9a4d8e; fill-opacity: 0.82; stroke: #ffffff; stroke-opacity: 0.82; stroke-width: 0.4"/>
    <path d="M 255.844851 69.271271 
C 256.760117 69.271271 257.638018 68.907633 258.285209 68.260442 
C 258.932399 67.613252 259.296038 66.73535 259.296038 65.820085 
C 259.296038 64.904819 258.932399 64.026917 258.285209 63.379727 
C 257.638018 62.732537 256.760117 62.368898 255.844851 62.368898 
C 254.929586 62.368898 254.051684 62.732537 253.404494 63.379727 
C 252.757303 64.026917 252.393664 64.904819 252.393664 65.820085 
C 252.393664 66.73535 252.757303 67.613252 253.404494 68.260442 
C 254.051684 68.907633 254.929586 69.271271 255.844851 69.271271 
z
" clip-path="url(#p525bf59329)" style="fill: #8f8f8f; fill-opacity: 0.82; stroke: #ffffff; stroke-opacity: 0.82; stroke-width: 0.4"/>
    <path d="M 350.66105 61.080916 
C 351.662429 61.080916 352.622928 60.683064 353.33101 59.974982 
C 354.039091 59.266901 354.436943 58.306401 354.436943 57.305023 
C 354.436943 56.303644 354.039091 55.343145 353.33101 54.635063 
C 352.622928 53.926982 351.662429 53.52913 350.66105 53.52913 
C 349.659672 53.52913 348.699172 53.926982 347.991091 54.635063 
C 347.283009 55.343145 346.885158 56.303644 346.885158 57.305023 
C 346.885158 58.306401 347.283009 59.266901 347.991091 59.974982 
C 348.699172 60.683064 349.659672 61.080916 350.66105 61.080916 
z
" clip-path="url(#p525bf59329)" style="fill: #d8892b; fill-opacity: 0.82; stroke: #ffffff; stroke-opacity: 0.82; stroke-width: 0.4"/>
    <path d="M 248.791103 66.305166 
C 249.758258 66.305166 250.68593 65.920912 251.369812 65.23703 
C 252.053694 64.553148 252.437948 63.625476 252.437948 62.658321 
C 252.437948 61.691166 252.053694 60.763494 251.369812 60.079612 
C 250.68593 59.39573 249.758258 59.011476 248.791103 59.011476 
C 247.823948 59.011476 246.896276 59.39573 246.212394 60.079612 
C 245.528512 60.763494 245.144258 61.691166 245.144258 62.658321 
C 245.144258 63.625476 245.528512 64.553148 246.212394 65.23703 
C 246.896276 65.920912 247.823948 66.305166 248.791103 66.305166 
z
" clip-path="url(#p525bf59329)" style="fill: #b64342; fill-opacity: 0.82; stroke: #ffffff; stroke-opacity: 0.82; stroke-width: 0.4"/>
   </g>
   <g id="PathCollection_3">
    <path d="M 172.767975 99.696664 
C 174.263922 99.696664 175.6988 99.102318 176.756594 98.044523 
C 177.814389 96.986729 178.408735 95.551851 178.408735 94.055904 
C 178.408735 92.559957 177.814389 91.125078 176.756594 90.067284 
C 175.6988 89.00949 174.263922 88.415144 172.767975 88.415144 
C 171.272028 88.415144 169.837149 89.00949 168.779355 90.067284 
C 167.721561 91.125078 167.127215 92.559957 167.127215 94.055904 
C 167.127215 95.551851 167.721561 96.986729 168.779355 98.044523 
C 169.837149 99.102318 171.272028 99.696664 172.767975 99.696664 
z
" clip-path="url(#p525bf59329)" style="fill: #8f8f8f; fill-opacity: 0.82; stroke: #ffffff; stroke-opacity: 0.82; stroke-width: 0.4"/>
    <path d="M 111.261348 89.911113 
C 113.053811 89.911113 114.773101 89.19896 116.040565 87.931497 
C 117.308028 86.664034 118.020181 84.944743 118.020181 83.15228 
C 118.020181 81.359816 117.308028 79.640526 116.040565 78.373063 
C 114.773101 77.1056 113.053811 76.393447 111.261348 76.393447 
C 109.468884 76.393447 107.749594 77.1056 106.482131 78.373063 
C 105.214668 79.640526 104.502514 81.359816 104.502514 83.15228 
C 104.502514 84.944743 105.214668 86.664034 106.482131 87.931497 
C 107.749594 89.19896 109.468884 89.911113 111.261348 89.911113 
z
" clip-path="url(#p525bf59329)" style="fill: #9a4d8e; fill-opacity: 0.82; stroke: #ffffff; stroke-opacity: 0.82; stroke-width: 0.4"/>
   </g>
   <g id="PathCollection_4">
    <path d="M 450.314182 126.337099 
C 451.942674 126.337099 453.504687 125.690092 454.656205 124.538574 
C 455.807722 123.387056 456.454729 121.825044 456.454729 120.196551 
C 456.454729 118.568059 455.807722 117.006046 454.656205 115.854529 
C 453.504687 114.703011 451.942674 114.056004 450.314182 114.056004 
C 448.68569 114.056004 447.123677 114.703011 445.972159 115.854529 
C 444.820641 117.006046 444.173634 118.568059 444.173634 120.196551 
C 444.173634 121.825044 444.820641 123.387056 445.972159 124.538574 
C 447.123677 125.690092 448.68569 126.337099 450.314182 126.337099 
z
" clip-path="url(#p525bf59329)" style="fill: #8f8f8f; fill-opacity: 0.82; stroke: #ffffff; stroke-opacity: 0.82; stroke-width: 0.4"/>
    <path d="M 423.668354 117.077598 
C 425.163719 117.077598 426.598039 116.483483 427.655422 115.4261 
C 428.712805 114.368717 429.30692 112.934397 429.30692 111.439031 
C 429.30692 109.943666 428.712805 108.509345 427.655422 107.451962 
C 426.598039 106.394579 425.163719 105.800464 423.668354 105.800464 
C 422.172988 105.800464 420.738668 106.394579 419.681285 107.451962 
C 418.623902 108.509345 418.029787 109.943666 418.029787 111.439031 
C 418.029787 112.934397 418.623902 114.368717 419.681285 115.4261 
C 420.738668 116.483483 422.172988 117.077598 423.668354 117.077598 
z
" clip-path="url(#p525bf59329)" style="fill: #8f8f8f; fill-opacity: 0.82; stroke: #ffffff; stroke-opacity: 0.82; stroke-width: 0.4"/>
    <path d="M 261.241219 123.254203 
C 262.150299 123.254203 263.022267 122.893021 263.665084 122.250205 
C 264.3079 121.607388 264.669081 120.73542 264.669081 119.82634 
C 264.669081 118.91726 264.3079 118.045291 263.665084 117.402475 
C 263.022267 116.759658 262.150299 116.398477 261.241219 116.398477 
C 260.332139 116.398477 259.46017 116.759658 258.817354 117.402475 
C 258.174537 118.045291 257.813356 118.91726 257.813356 119.82634 
C 257.813356 120.73542 258.174537 121.607388 258.817354 122.250205 
C 259.46017 122.893021 260.332139 123.254203 261.241219 123.254203 
z
" clip-path="url(#p525bf59329)" style="fill: #9a4d8e; fill-opacity: 0.82; stroke: #ffffff; stroke-opacity: 0.82; stroke-width: 0.4"/>
   </g>
   <g id="PathCollection_5">
    <path d="M 253.851652 151.740581 
C 255.114738 151.740581 256.326261 151.238751 257.219397 150.345615 
C 258.112534 149.452478 258.614363 148.240955 258.614363 146.977869 
C 258.614363 145.714784 258.112534 144.50326 257.219397 143.610124 
C 256.326261 142.716987 255.114738 142.215158 253.851652 142.215158 
C 252.588566 142.215158 251.377043 142.716987 250.483906 143.610124 
C 249.59077 144.50326 249.088941 145.714784 249.088941 146.977869 
C 249.088941 148.240955 249.59077 149.452478 250.483906 150.345615 
C 251.377043 151.238751 252.588566 151.740581 253.851652 151.740581 
z
" clip-path="url(#p525bf59329)" style="fill: #d8892b; fill-opacity: 0.82; stroke: #ffffff; stroke-opacity: 0.82; stroke-width: 0.4"/>
    <path d="M 292.895934 139.631946 
C 293.527241 139.631946 294.132775 139.381125 294.579176 138.934724 
C 295.025577 138.488324 295.276397 137.882789 295.276397 137.251483 
C 295.276397 136.620177 295.025577 136.014642 294.579176 135.568241 
C 294.132775 135.121841 293.527241 134.87102 292.895934 134.87102 
C 292.264628 134.87102 291.659094 135.121841 291.212693 135.568241 
C 290.766292 136.014642 290.515471 136.620177 290.515471 137.251483 
C 290.515471 137.882789 290.766292 138.488324 291.212693 138.934724 
C 291.659094 139.381125 292.264628 139.631946 292.895934 139.631946 
z
" clip-path="url(#p525bf59329)" style="fill: #d8892b; fill-opacity: 0.82; stroke: #ffffff; stroke-opacity: 0.82; stroke-width: 0.4"/>
    <path d="M 328.591346 146.928746 
C 329.697299 146.928746 330.758104 146.489346 331.54013 145.707319 
C 332.322157 144.925292 332.761557 143.864488 332.761557 142.758535 
C 332.761557 141.652582 332.322157 140.591777 331.54013 139.80975 
C 330.758104 139.027723 329.697299 138.588324 328.591346 138.588324 
C 327.485393 138.588324 326.424588 139.027723 325.642561 139.80975 
C 324.860535 140.591777 324.421135 141.652582 324.421135 142.758535 
C 324.421135 143.864488 324.860535 144.925292 325.642561 145.707319 
C 326.424588 146.489346 327.485393 146.928746 328.591346 146.928746 
z
" clip-path="url(#p525bf59329)" style="fill: #8f8f8f; fill-opacity: 0.82; stroke: #ffffff; stroke-opacity: 0.82; stroke-width: 0.4"/>
    <path d="M 341.898963 146.706644 
C 343.176091 146.706644 344.401082 146.199236 345.304148 145.29617 
C 346.207213 144.393105 346.714622 143.168113 346.714622 141.890986 
C 346.714622 140.613858 346.207213 139.388866 345.304148 138.485801 
C 344.401082 137.582735 343.176091 137.075327 341.898963 137.075327 
C 340.621835 137.075327 339.396844 137.582735 338.493778 138.485801 
C 337.590712 139.388866 337.083304 140.613858 337.083304 141.890986 
C 337.083304 143.168113 337.590712 144.393105 338.493778 145.29617 
C 339.396844 146.199236 340.621835 146.706644 341.898963 146.706644 
z
" clip-path="url(#p525bf59329)" style="fill: #b64342; fill-opacity: 0.82; stroke: #ffffff; stroke-opacity: 0.82; stroke-width: 0.4"/>
    <path d="M 287.272112 145.342689 
C 288.027715 145.342689 288.752473 145.042485 289.286765 144.508193 
C 289.821058 143.9739 290.121262 143.249143 290.121262 142.493539 
C 290.121262 141.737936 289.821058 141.013178 289.286765 140.478886 
C 288.752473 139.944594 288.027715 139.644389 287.272112 139.644389 
C 286.516509 139.644389 285.791751 139.944594 285.257459 140.478886 
C 284.723166 141.013178 284.422962 141.737936 284.422962 142.493539 
C 284.422962 143.249143 284.723166 143.9739 285.257459 144.508193 
C 285.791751 145.042485 286.516509 145.342689 287.272112 145.342689 
z
" clip-path="url(#p525bf59329)" style="fill: #8f8f8f; fill-opacity: 0.82; stroke: #ffffff; stroke-opacity: 0.82; stroke-width: 0.4"/>
    <path d="M 308.061408 145.871104 
C 308.832005 145.871104 309.571145 145.564942 310.11604 145.020048 
C 310.660934 144.475153 310.967096 143.736014 310.967096 142.965416 
C 310.967096 142.194819 310.660934 141.45568 310.11604 140.910785 
C 309.571145 140.36589 308.832005 140.059729 308.061408 140.059729 
C 307.290811 140.059729 306.551671 140.36589 306.006777 140.910785 
C 305.461882 141.45568 305.15572 142.194819 305.15572 142.965416 
C 305.15572 143.736014 305.461882 144.475153 306.006777 145.020048 
C 306.551671 145.564942 307.290811 145.871104 308.061408 145.871104 
z
" clip-path="url(#p525bf59329)" style="fill: #8f8f8f; fill-opacity: 0.82; stroke: #ffffff; stroke-opacity: 0.82; stroke-width: 0.4"/>
    <path d="M 313.373186 145.413158 
C 314.243039 145.413158 315.077382 145.067561 315.692461 144.452482 
C 316.30754 143.837404 316.653136 143.00306 316.653136 142.133208 
C 316.653136 141.263355 316.30754 140.429011 315.692461 139.813933 
C 315.077382 139.198854 314.243039 138.853257 313.373186 138.853257 
C 312.503333 138.853257 311.66899 139.198854 311.053911 139.813933 
C 310.438832 140.429011 310.093236 141.263355 310.093236 142.133208 
C 310.093236 143.00306 310.438832 143.837404 311.053911 144.452482 
C 311.66899 145.067561 312.503333 145.413158 313.373186 145.413158 
z
" clip-path="url(#p525bf59329)" style="fill: #d8892b; fill-opacity: 0.82; stroke: #ffffff; stroke-opacity: 0.82; stroke-width: 0.4"/>
   </g>
   <g id="PathCollection_6">
    <path d="M 254.904274 179.710465 
C 256.898032 179.710465 258.810399 178.918336 260.220199 177.508536 
C 261.629999 176.098737 262.422128 174.186369 262.422128 172.192611 
C 262.422128 170.198853 261.629999 168.286485 260.220199 166.876686 
C 258.810399 165.466886 256.898032 164.674757 254.904274 164.674757 
C 252.910516 164.674757 250.998148 165.466886 249.588348 166.876686 
C 248.178548 168.286485 247.38642 170.198853 247.38642 172.192611 
C 247.38642 174.186369 248.178548 176.098737 249.588348 177.508536 
C 250.998148 178.918336 252.910516 179.710465 254.904274 179.710465 
z
" clip-path="url(#p525bf59329)" style="fill: #b64342; fill-opacity: 0.82; stroke: #ffffff; stroke-opacity: 0.82; stroke-width: 0.4"/>
    <path d="M 311.136047 168.818914 
C 312.350835 168.818914 313.516033 168.336273 314.375018 167.477288 
C 315.234004 166.618302 315.716644 165.453105 315.716644 164.238316 
C 315.716644 163.023527 315.234004 161.85833 314.375018 160.999345 
C 313.516033 160.140359 312.350835 159.657719 311.136047 159.657719 
C 309.921258 159.657719 308.75606 160.140359 307.897075 160.999345 
C 307.03809 161.85833 306.555449 163.023527 306.555449 164.238316 
C 306.555449 165.453105 307.03809 166.618302 307.897075 167.477288 
C 308.75606 168.336273 309.921258 168.818914 311.136047 168.818914 
z
" clip-path="url(#p525bf59329)" style="fill: #8f8f8f; fill-opacity: 0.82; stroke: #ffffff; stroke-opacity: 0.82; stroke-width: 0.4"/>
   </g>
   <g id="PathCollection_7">
    <path d="M 297.808814 198.750251 
C 298.332826 198.750251 298.835446 198.542058 299.205979 198.171526 
C 299.576511 197.800994 299.784703 197.298373 299.784703 196.774361 
C 299.784703 196.25035 299.576511 195.747729 299.205979 195.377197 
C 298.835446 195.006664 298.332826 194.798472 297.808814 194.798472 
C 297.284802 194.798472 296.782182 195.006664 296.41165 195.377197 
C 296.041117 195.747729 295.832925 196.25035 295.832925 196.774361 
C 295.832925 197.298373 296.041117 197.800994 296.41165 198.171526 
C 296.782182 198.542058 297.284802 198.750251 297.808814 198.750251 
z
" clip-path="url(#p525bf59329)" style="fill: #8f8f8f; fill-opacity: 0.82; stroke: #ffffff; stroke-opacity: 0.82; stroke-width: 0.4"/>
    <path d="M 345.897442 196.13883 
C 347.031566 196.13883 348.119393 195.688237 348.92134 194.88629 
C 349.723288 194.084342 350.17388 192.996516 350.17388 191.862391 
C 350.17388 190.728266 349.723288 189.640439 348.92134 188.838492 
C 348.119393 188.036545 347.031566 187.585952 345.897442 187.585952 
C 344.763317 187.585952 343.67549 188.036545 342.873543 188.838492 
C 342.071595 189.640439 341.621003 190.728266 341.621003 191.862391 
C 341.621003 192.996516 342.071595 194.084342 342.873543 194.88629 
C 343.67549 195.688237 344.763317 196.13883 345.897442 196.13883 
z
" clip-path="url(#p525bf59329)" style="fill: #8f8f8f; fill-opacity: 0.82; stroke: #ffffff; stroke-opacity: 0.82; stroke-width: 0.4"/>
    <path d="M 281.445121 203.180214 
C 282.217877 203.180214 282.959088 202.873195 283.50551 202.326773 
C 284.051931 201.780351 284.358951 201.039141 284.358951 200.266384 
C 284.358951 199.493627 284.051931 198.752416 283.50551 198.205995 
C 282.959088 197.659573 282.217877 197.352554 281.445121 197.352554 
C 280.672364 197.352554 279.931153 197.659573 279.384731 198.205995 
C 278.83831 198.752416 278.53129 199.493627 278.53129 200.266384 
C 278.53129 201.039141 278.83831 201.780351 279.384731 202.326773 
C 279.931153 202.873195 280.672364 203.180214 281.445121 203.180214 
z
" clip-path="url(#p525bf59329)" style="fill: #d8892b; fill-opacity: 0.82; stroke: #ffffff; stroke-opacity: 0.82; stroke-width: 0.4"/>
    <path d="M 297.709921 197.813494 
C 298.231944 197.813494 298.732656 197.606092 299.101782 197.236966 
C 299.470908 196.86784 299.67831 196.367127 299.67831 195.845104 
C 299.67831 195.323081 299.470908 194.822368 299.101782 194.453242 
C 298.732656 194.084116 298.231944 193.876714 297.709921 193.876714 
C 297.187898 193.876714 296.687185 194.084116 296.318059 194.453242 
C 295.948933 194.822368 295.741531 195.323081 295.741531 195.845104 
C 295.741531 196.367127 295.948933 196.86784 296.318059 197.236966 
C 296.687185 197.606092 297.187898 197.813494 297.709921 197.813494 
z
" clip-path="url(#p525bf59329)" style="fill: #0f4d92; fill-opacity: 0.82; stroke: #ffffff; stroke-opacity: 0.82; stroke-width: 0.4"/>
    <path d="M 338.894992 197.826246 
C 339.962197 197.826246 340.985836 197.402241 341.740464 196.647613 
C 342.495092 195.892985 342.919097 194.869346 342.919097 193.802141 
C 342.919097 192.734936 342.495092 191.711297 341.740464 190.956668 
C 340.985836 190.20204 339.962197 189.778035 338.894992 189.778035 
C 337.827787 189.778035 336.804148 190.20204 336.04952 190.956668 
C 335.294892 191.711297 334.870886 192.734936 334.870886 193.802141 
C 334.870886 194.869346 335.294892 195.892985 336.04952 196.647613 
C 336.804148 197.402241 337.827787 197.826246 338.894992 197.826246 
z
" clip-path="url(#p525bf59329)" style="fill: #3775ba; fill-opacity: 0.82; stroke: #ffffff; stroke-opacity: 0.82; stroke-width: 0.4"/>
    <path d="M 229.841621 195.81375 
C 231.138828 195.81375 232.38308 195.298364 233.300344 194.3811 
C 234.217608 193.463836 234.732994 192.219584 234.732994 190.922377 
C 234.732994 189.625169 234.217608 188.380918 233.300344 187.463654 
C 232.38308 186.546389 231.138828 186.031004 229.841621 186.031004 
C 228.544413 186.031004 227.300162 186.546389 226.382898 187.463654 
C 225.465634 188.380918 224.950248 189.625169 224.950248 190.922377 
C 224.950248 192.219584 225.465634 193.463836 226.382898 194.3811 
C 227.300162 195.298364 228.544413 195.81375 229.841621 195.81375 
z
" clip-path="url(#p525bf59329)" style="fill: #8f8f8f; fill-opacity: 0.82; stroke: #ffffff; stroke-opacity: 0.82; stroke-width: 0.4"/>
    <path d="M 237.703335 197.93969 
C 238.935146 197.93969 240.116671 197.450287 240.987693 196.579265 
C 241.858715 195.708243 242.348119 194.526718 242.348119 193.294907 
C 242.348119 192.063096 241.858715 190.881571 240.987693 190.010549 
C 240.116671 189.139527 238.935146 188.650123 237.703335 188.650123 
C 236.471524 188.650123 235.289999 189.139527 234.418978 190.010549 
C 233.547956 190.881571 233.058552 192.063096 233.058552 193.294907 
C 233.058552 194.526718 233.547956 195.708243 234.418978 196.579265 
C 235.289999 197.450287 236.471524 197.93969 237.703335 197.93969 
z
" clip-path="url(#p525bf59329)" style="fill: #8f8f8f; fill-opacity: 0.82; stroke: #ffffff; stroke-opacity: 0.82; stroke-width: 0.4"/>
   </g>
   <g id="PathCollection_8">
    <path d="M 293.956707 225.584598 
C 294.523157 225.584598 295.066483 225.359545 295.467024 224.959004 
C 295.867565 224.558463 296.092618 224.015137 296.092618 223.448686 
C 296.092618 222.882236 295.867565 222.33891 295.467024 221.938369 
C 295.066483 221.537828 294.523157 221.312775 293.956707 221.312775 
C 293.390257 221.312775 292.84693 221.537828 292.446389 221.938369 
C 292.045849 222.33891 291.820795 222.882236 291.820795 223.448686 
C 291.820795 224.015137 292.045849 224.558463 292.446389 224.959004 
C 292.84693 225.359545 293.390257 225.584598 293.956707 225.584598 
z
" clip-path="url(#p525bf59329)" style="fill: #b64342; fill-opacity: 0.82; stroke: #ffffff; stroke-opacity: 0.82; stroke-width: 0.4"/>
    <path d="M 314.19574 221.051175 
C 314.939431 221.051175 315.652763 220.755703 316.178632 220.229834 
C 316.704502 219.703965 316.999973 218.990633 316.999973 218.246942 
C 316.999973 217.50325 316.704502 216.789919 316.178632 216.264049 
C 315.652763 215.73818 314.939431 215.442708 314.19574 215.442708 
C 313.452049 215.442708 312.738717 215.73818 312.212848 216.264049 
C 311.686978 216.789919 311.391507 217.50325 311.391507 218.246942 
C 311.391507 218.990633 311.686978 219.703965 312.212848 220.229834 
C 312.738717 220.755703 313.452049 221.051175 314.19574 221.051175 
z
" clip-path="url(#p525bf59329)" style="fill: #b64342; fill-opacity: 0.82; stroke: #ffffff; stroke-opacity: 0.82; stroke-width: 0.4"/>
    <path d="M 308.883073 225.02668 
C 309.562878 225.02668 310.214932 224.75659 310.695628 224.275895 
C 311.176323 223.7952 311.446412 223.143146 311.446412 222.46334 
C 311.446412 221.783535 311.176323 221.131481 310.695628 220.650786 
C 310.214932 220.17009 309.562878 219.900001 308.883073 219.900001 
C 308.203267 219.900001 307.551213 220.17009 307.070518 220.650786 
C 306.589823 221.131481 306.319733 221.783535 306.319733 222.46334 
C 306.319733 223.143146 306.589823 223.7952 307.070518 224.275895 
C 307.551213 224.75659 308.203267 225.02668 308.883073 225.02668 
z
" clip-path="url(#p525bf59329)" style="fill: #b64342; fill-opacity: 0.82; stroke: #ffffff; stroke-opacity: 0.82; stroke-width: 0.4"/>
    <path d="M 290.535431 223.690509 
C 291.15141 223.690509 291.742244 223.445778 292.177807 223.010215 
C 292.61337 222.574652 292.858102 221.983818 292.858102 221.367839 
C 292.858102 220.751859 292.61337 220.161026 292.177807 219.725462 
C 291.742244 219.289899 291.15141 219.045168 290.535431 219.045168 
C 289.919452 219.045168 289.328618 219.289899 288.893055 219.725462 
C 288.457492 220.161026 288.21276 220.751859 288.21276 221.367839 
C 288.21276 221.983818 288.457492 222.574652 288.893055 223.010215 
C 289.328618 223.445778 289.919452 223.690509 290.535431 223.690509 
z
" clip-path="url(#p525bf59329)" style="fill: #b64342; fill-opacity: 0.82; stroke: #ffffff; stroke-opacity: 0.82; stroke-width: 0.4"/>
    <path d="M 281.828003 224.03123 
C 282.554971 224.03123 283.252262 223.742403 283.766306 223.228359 
C 284.28035 222.714314 284.569178 222.017023 284.569178 221.290055 
C 284.569178 220.563087 284.28035 219.865795 283.766306 219.351751 
C 283.252262 218.837707 282.554971 218.54888 281.828003 218.54888 
C 281.101034 218.54888 280.403743 218.837707 279.889699 219.351751 
C 279.375655 219.865795 279.086827 220.563087 279.086827 221.290055 
C 279.086827 222.017023 279.375655 222.714314 279.889699 223.228359 
C 280.403743 223.742403 281.101034 224.03123 281.828003 224.03123 
z
" clip-path="url(#p525bf59329)" style="fill: #b64342; fill-opacity: 0.82; stroke: #ffffff; stroke-opacity: 0.82; stroke-width: 0.4"/>
    <path d="M 291.266355 220.755716 
C 291.872094 220.755716 292.453104 220.515054 292.881426 220.086732 
C 293.309747 219.658411 293.55041 219.0774 293.55041 218.471662 
C 293.55041 217.865924 293.309747 217.284913 292.881426 216.856592 
C 292.453104 216.42827 291.872094 216.187607 291.266355 216.187607 
C 290.660617 216.187607 290.079607 216.42827 289.651285 216.856592 
C 289.222963 217.284913 288.982301 217.865924 288.982301 218.471662 
C 288.982301 219.0774 289.222963 219.658411 289.651285 220.086732 
C 290.079607 220.515054 290.660617 220.755716 291.266355 220.755716 
z
" clip-path="url(#p525bf59329)" style="fill: #8f8f8f; fill-opacity: 0.82; stroke: #ffffff; stroke-opacity: 0.82; stroke-width: 0.4"/>
    <path d="M 294.771386 219.828542 
C 295.32539 219.828542 295.856778 219.608434 296.248518 219.216694 
C 296.640258 218.824954 296.860366 218.293566 296.860366 217.739562 
C 296.860366 217.185558 296.640258 216.65417 296.248518 216.26243 
C 295.856778 215.87069 295.32539 215.650581 294.771386 215.650581 
C 294.217382 215.650581 293.685994 215.87069 293.294254 216.26243 
C 292.902514 216.65417 292.682405 217.185558 292.682405 217.739562 
C 292.682405 218.293566 292.902514 218.824954 293.294254 219.216694 
C 293.685994 219.608434 294.217382 219.828542 294.771386 219.828542 
z
" clip-path="url(#p525bf59329)" style="fill: #b64342; fill-opacity: 0.82; stroke: #ffffff; stroke-opacity: 0.82; stroke-width: 0.4"/>
    <path d="M 295.012363 228.901482 
C 295.562631 228.901482 296.090436 228.682858 296.479535 228.293759 
C 296.868634 227.90466 297.087258 227.376855 297.087258 226.826587 
C 297.087258 226.276318 296.868634 225.748513 296.479535 225.359414 
C 296.090436 224.970316 295.562631 224.751692 295.012363 224.751692 
C 294.462094 224.751692 293.934289 224.970316 293.545191 225.359414 
C 293.156092 225.748513 292.937468 226.276318 292.937468 226.826587 
C 292.937468 227.376855 293.156092 227.90466 293.545191 228.293759 
C 293.934289 228.682858 294.462094 228.901482 295.012363 228.901482 
z
" clip-path="url(#p525bf59329)" style="fill: #b64342; fill-opacity: 0.82; stroke: #ffffff; stroke-opacity: 0.82; stroke-width: 0.4"/>
    <path d="M 293.914083 219.218663 
C 294.481177 219.218663 295.025121 218.993354 295.426117 218.592358 
C 295.827113 218.191362 296.052422 217.647418 296.052422 217.080324 
C 296.052422 216.51323 295.827113 215.969286 295.426117 215.56829 
C 295.025121 215.167294 294.481177 214.941986 293.914083 214.941986 
C 293.346989 214.941986 292.803046 215.167294 292.40205 215.56829 
C 292.001054 215.969286 291.775745 216.51323 291.775745 217.080324 
C 291.775745 217.647418 292.001054 218.191362 292.40205 218.592358 
C 292.803046 218.993354 293.346989 219.218663 293.914083 219.218663 
z
" clip-path="url(#p525bf59329)" style="fill: #b64342; fill-opacity: 0.82; stroke: #ffffff; stroke-opacity: 0.82; stroke-width: 0.4"/>
    <path d="M 295.075812 220.633173 
C 295.625093 220.633173 296.15195 220.414942 296.54035 220.026542 
C 296.928751 219.638141 297.146982 219.111284 297.146982 218.562003 
C 297.146982 218.012722 296.928751 217.485865 296.54035 217.097464 
C 296.15195 216.709064 295.625093 216.490833 295.075812 216.490833 
C 294.526531 216.490833 293.999674 216.709064 293.611273 217.097464 
C 293.222873 217.485865 293.004642 218.012722 293.004642 218.562003 
C 293.004642 219.111284 293.222873 219.638141 293.611273 220.026542 
C 293.999674 220.414942 294.526531 220.633173 295.075812 220.633173 
z
" clip-path="url(#p525bf59329)" style="fill: #b64342; fill-opacity: 0.82; stroke: #ffffff; stroke-opacity: 0.82; stroke-width: 0.4"/>
    <path d="M 301.824457 221.102598 
C 302.408673 221.102598 302.969039 220.870487 303.382141 220.457384 
C 303.795244 220.044281 304.027355 219.483915 304.027355 218.8997 
C 304.027355 218.315484 303.795244 217.755118 303.382141 217.342015 
C 302.969039 216.928913 302.408673 216.696801 301.824457 216.696801 
C 301.240242 216.696801 300.679875 216.928913 300.266773 217.342015 
C 299.85367 217.755118 299.621559 218.315484 299.621559 218.8997 
C 299.621559 219.483915 299.85367 220.044281 300.266773 220.457384 
C 300.679875 220.870487 301.240242 221.102598 301.824457 221.102598 
z
" clip-path="url(#p525bf59329)" style="fill: #8f8f8f; fill-opacity: 0.82; stroke: #ffffff; stroke-opacity: 0.82; stroke-width: 0.4"/>
    <path d="M 301.275818 223.676533 
C 301.851939 223.676533 302.404542 223.447637 302.811922 223.040258 
C 303.219301 222.632878 303.448197 222.080276 303.448197 221.504154 
C 303.448197 220.928032 303.219301 220.375429 302.811922 219.96805 
C 302.404542 219.56067 301.851939 219.331775 301.275818 219.331775 
C 300.699696 219.331775 300.147093 219.56067 299.739713 219.96805 
C 299.332334 220.375429 299.103438 220.928032 299.103438 221.504154 
C 299.103438 222.080276 299.332334 222.632878 299.739713 223.040258 
C 300.147093 223.447637 300.699696 223.676533 301.275818 223.676533 
z
" clip-path="url(#p525bf59329)" style="fill: #8f8f8f; fill-opacity: 0.82; stroke: #ffffff; stroke-opacity: 0.82; stroke-width: 0.4"/>
    <path d="M 303.773716 223.980642 
C 304.385823 223.980642 304.972942 223.73745 305.405767 223.304625 
C 305.838592 222.8718 306.081784 222.284681 306.081784 221.672574 
C 306.081784 221.060467 305.838592 220.473348 305.405767 220.040524 
C 304.972942 219.607699 304.385823 219.364506 303.773716 219.364506 
C 303.161609 219.364506 302.574491 219.607699 302.141666 220.040524 
C 301.708841 220.473348 301.465648 221.060467 301.465648 221.672574 
C 301.465648 222.284681 301.708841 222.8718 302.141666 223.304625 
C 302.574491 223.73745 303.161609 223.980642 303.773716 223.980642 
z
" clip-path="url(#p525bf59329)" style="fill: #d8892b; fill-opacity: 0.82; stroke: #ffffff; stroke-opacity: 0.82; stroke-width: 0.4"/>
    <path d="M 296.296076 227.249105 
C 296.826001 227.249105 297.334294 227.038563 297.709008 226.663849 
C 298.083722 226.289135 298.294264 225.780843 298.294264 225.250917 
C 298.294264 224.720992 298.083722 224.212699 297.709008 223.837985 
C 297.334294 223.463271 296.826001 223.252729 296.296076 223.252729 
C 295.76615 223.252729 295.257858 223.463271 294.883144 223.837985 
C 294.50843 224.212699 294.297888 224.720992 294.297888 225.250917 
C 294.297888 225.780843 294.50843 226.289135 294.883144 226.663849 
C 295.257858 227.038563 295.76615 227.249105 296.296076 227.249105 
z
" clip-path="url(#p525bf59329)" style="fill: #8f8f8f; fill-opacity: 0.82; stroke: #ffffff; stroke-opacity: 0.82; stroke-width: 0.4"/>
    <path d="M 282.694035 229.53594 
C 283.410734 229.53594 284.098176 229.251192 284.604959 228.744409 
C 285.111742 228.237626 285.39649 227.550184 285.39649 226.833485 
C 285.39649 226.116785 285.111742 225.429343 284.604959 224.92256 
C 284.098176 224.415777 283.410734 224.13103 282.694035 224.13103 
C 281.977335 224.13103 281.289893 224.415777 280.78311 224.92256 
C 280.276327 225.429343 279.991579 226.116785 279.991579 226.833485 
C 279.991579 227.550184 280.276327 228.237626 280.78311 228.744409 
C 281.289893 229.251192 281.977335 229.53594 282.694035 229.53594 
z
" clip-path="url(#p525bf59329)" style="fill: #0f4d92; fill-opacity: 0.82; stroke: #ffffff; stroke-opacity: 0.82; stroke-width: 0.4"/>
    <path d="M 293.870749 218.785505 
C 294.438496 218.785505 294.983067 218.559936 295.384525 218.158478 
C 295.785983 217.75702 296.011552 217.212449 296.011552 216.644702 
C 296.011552 216.076954 295.785983 215.532383 295.384525 215.130925 
C 294.983067 214.729467 294.438496 214.503898 293.870749 214.503898 
C 293.303001 214.503898 292.75843 214.729467 292.356972 215.130925 
C 291.955514 215.532383 291.729945 216.076954 291.729945 216.644702 
C 291.729945 217.212449 291.955514 217.75702 292.356972 218.158478 
C 292.75843 218.559936 293.303001 218.785505 293.870749 218.785505 
z
" clip-path="url(#p525bf59329)" style="fill: #0f4d92; fill-opacity: 0.82; stroke: #ffffff; stroke-opacity: 0.82; stroke-width: 0.4"/>
    <path d="M 292.009383 220.663473 
C 292.60453 220.663473 293.175381 220.427019 293.596214 220.006186 
C 294.017046 219.585354 294.2535 219.014502 294.2535 218.419355 
C 294.2535 217.824208 294.017046 217.253357 293.596214 216.832524 
C 293.175381 216.411692 292.60453 216.175238 292.009383 216.175238 
C 291.414236 216.175238 290.843384 216.411692 290.422552 216.832524 
C 290.001719 217.253357 289.765265 217.824208 289.765265 218.419355 
C 289.765265 219.014502 290.001719 219.585354 290.422552 220.006186 
C 290.843384 220.427019 291.414236 220.663473 292.009383 220.663473 
z
" clip-path="url(#p525bf59329)" style="fill: #b64342; fill-opacity: 0.82; stroke: #ffffff; stroke-opacity: 0.82; stroke-width: 0.4"/>
    <path d="M 296.883484 218.733559 
C 297.403836 218.733559 297.902946 218.526821 298.27089 218.158877 
C 298.638834 217.790933 298.845572 217.291823 298.845572 216.771471 
C 298.845572 216.25112 298.638834 215.75201 298.27089 215.384066 
C 297.902946 215.016121 297.403836 214.809384 296.883484 214.809384 
C 296.363132 214.809384 295.864023 215.016121 295.496079 215.384066 
C 295.128134 215.75201 294.921396 216.25112 294.921396 216.771471 
C 294.921396 217.291823 295.128134 217.790933 295.496079 218.158877 
C 295.864023 218.526821 296.363132 218.733559 296.883484 218.733559 
z
" clip-path="url(#p525bf59329)" style="fill: #8f8f8f; fill-opacity: 0.82; stroke: #ffffff; stroke-opacity: 0.82; stroke-width: 0.4"/>
    <path d="M 306.154122 223.120502 
C 306.798654 223.120502 307.416875 222.864427 307.872628 222.408673 
C 308.328382 221.95292 308.584457 221.334699 308.584457 220.690167 
C 308.584457 220.045634 308.328382 219.427414 307.872628 218.97166 
C 307.416875 218.515907 306.798654 218.259832 306.154122 218.259832 
C 305.509589 218.259832 304.891369 218.515907 304.435615 218.97166 
C 303.979862 219.427414 303.723787 220.045634 303.723787 220.690167 
C 303.723787 221.334699 303.979862 221.95292 304.435615 222.408673 
C 304.891369 222.864427 305.509589 223.120502 306.154122 223.120502 
z
" clip-path="url(#p525bf59329)" style="fill: #b64342; fill-opacity: 0.82; stroke: #ffffff; stroke-opacity: 0.82; stroke-width: 0.4"/>
    <path d="M 293.085854 230.087737 
C 293.665313 230.087737 294.221117 229.857515 294.630857 229.447776 
C 295.040596 229.038036 295.270818 228.482232 295.270818 227.902773 
C 295.270818 227.323313 295.040596 226.767509 294.630857 226.35777 
C 294.221117 225.94803 293.665313 225.717808 293.085854 225.717808 
C 292.506394 225.717808 291.95059 225.94803 291.540851 226.35777 
C 291.131111 226.767509 290.900889 227.323313 290.900889 227.902773 
C 290.900889 228.482232 291.131111 229.038036 291.540851 229.447776 
C 291.95059 229.857515 292.506394 230.087737 293.085854 230.087737 
z
" clip-path="url(#p525bf59329)" style="fill: #b64342; fill-opacity: 0.82; stroke: #ffffff; stroke-opacity: 0.82; stroke-width: 0.4"/>
    <path d="M 325.126666 228.03316 
C 325.987009 228.03316 326.812231 227.691342 327.420585 227.082987 
C 328.028939 226.474633 328.370757 225.649411 328.370757 224.789068 
C 328.370757 223.928725 328.028939 223.103504 327.420585 222.495149 
C 326.812231 221.886795 325.987009 221.544977 325.126666 221.544977 
C 324.266323 221.544977 323.441101 221.886795 322.832747 222.495149 
C 322.224392 223.103504 321.882575 223.928725 321.882575 224.789068 
C 321.882575 225.649411 322.224392 226.474633 322.832747 227.082987 
C 323.441101 227.691342 324.266323 228.03316 325.126666 228.03316 
z
" clip-path="url(#p525bf59329)" style="fill: #b64342; fill-opacity: 0.82; stroke: #ffffff; stroke-opacity: 0.82; stroke-width: 0.4"/>
    <path d="M 279.880619 227.21601 
C 280.630164 227.21601 281.349111 226.918213 281.879119 226.388204 
C 282.409127 225.858196 282.706925 225.13925 282.706925 224.389705 
C 282.706925 223.64016 282.409127 222.921213 281.879119 222.391205 
C 281.349111 221.861197 280.630164 221.563399 279.880619 221.563399 
C 279.131074 221.563399 278.412128 221.861197 277.88212 222.391205 
C 277.352111 222.921213 277.054314 223.64016 277.054314 224.389705 
C 277.054314 225.13925 277.352111 225.858196 277.88212 226.388204 
C 278.412128 226.918213 279.131074 227.21601 279.880619 227.21601 
z
" clip-path="url(#p525bf59329)" style="fill: #b64342; fill-opacity: 0.82; stroke: #ffffff; stroke-opacity: 0.82; stroke-width: 0.4"/>
    <path d="M 316.105393 223.453486 
C 316.870747 223.453486 317.604856 223.149408 318.146043 222.608221 
C 318.68723 222.067035 318.991308 221.332925 318.991308 220.567571 
C 318.991308 219.802218 318.68723 219.068108 318.146043 218.526922 
C 317.604856 217.985735 316.870747 217.681657 316.105393 217.681657 
C 315.34004 217.681657 314.60593 217.985735 314.064744 218.526922 
C 313.523557 219.068108 313.219479 219.802218 313.219479 220.567571 
C 313.219479 221.332925 313.523557 222.067035 314.064744 222.608221 
C 314.60593 223.149408 315.34004 223.453486 316.105393 223.453486 
z
" clip-path="url(#p525bf59329)" style="fill: #8f8f8f; fill-opacity: 0.82; stroke: #ffffff; stroke-opacity: 0.82; stroke-width: 0.4"/>
    <path d="M 313.630549 227.239507 
C 314.367708 227.239507 315.074773 226.946631 315.596022 226.425382 
C 316.117272 225.904132 316.410148 225.197067 316.410148 224.459909 
C 316.410148 223.722751 316.117272 223.015686 315.596022 222.494436 
C 315.074773 221.973187 314.367708 221.680311 313.630549 221.680311 
C 312.893391 221.680311 312.186326 221.973187 311.665077 222.494436 
C 311.143827 223.015686 310.850951 223.722751 310.850951 224.459909 
C 310.850951 225.197067 311.143827 225.904132 311.665077 226.425382 
C 312.186326 226.946631 312.893391 227.239507 313.630549 227.239507 
z
" clip-path="url(#p525bf59329)" style="fill: #b64342; fill-opacity: 0.82; stroke: #ffffff; stroke-opacity: 0.82; stroke-width: 0.4"/>
    <path d="M 294.080647 225.53937 
C 294.645221 225.53937 295.186748 225.315062 295.585963 224.915847 
C 295.985177 224.516633 296.209485 223.975106 296.209485 223.410531 
C 296.209485 222.845957 295.985177 222.30443 295.585963 221.905215 
C 295.186748 221.506001 294.645221 221.281693 294.080647 221.281693 
C 293.516072 221.281693 292.974545 221.506001 292.57533 221.905215 
C 292.176116 222.30443 291.951808 222.845957 291.951808 223.410531 
C 291.951808 223.975106 292.176116 224.516633 292.57533 224.915847 
C 292.974545 225.315062 293.516072 225.53937 294.080647 225.53937 
z
" clip-path="url(#p525bf59329)" style="fill: #d8892b; fill-opacity: 0.82; stroke: #ffffff; stroke-opacity: 0.82; stroke-width: 0.4"/>
    <path d="M 277.961516 224.990608 
C 278.732664 224.990608 279.472331 224.684228 280.017614 224.138944 
C 280.562898 223.593661 280.869278 222.853993 280.869278 222.082846 
C 280.869278 221.311698 280.562898 220.572031 280.017614 220.026748 
C 279.472331 219.481464 278.732664 219.175084 277.961516 219.175084 
C 277.190369 219.175084 276.450701 219.481464 275.905418 220.026748 
C 275.360134 220.572031 275.053754 221.311698 275.053754 222.082846 
C 275.053754 222.853993 275.360134 223.593661 275.905418 224.138944 
C 276.450701 224.684228 277.190369 224.990608 277.961516 224.990608 
z
" clip-path="url(#p525bf59329)" style="fill: #b64342; fill-opacity: 0.82; stroke: #ffffff; stroke-opacity: 0.82; stroke-width: 0.4"/>
    <path d="M 296.985289 219.869454 
C 297.503964 219.869454 298.001464 219.663382 298.368223 219.296624 
C 298.734981 218.929866 298.941053 218.432365 298.941053 217.91369 
C 298.941053 217.395016 298.734981 216.897515 298.368223 216.530757 
C 298.001464 216.163998 297.503964 215.957927 296.985289 215.957927 
C 296.466614 215.957927 295.969114 216.163998 295.602355 216.530757 
C 295.235597 216.897515 295.029525 217.395016 295.029525 217.91369 
C 295.029525 218.432365 295.235597 218.929866 295.602355 219.296624 
C 295.969114 219.663382 296.466614 219.869454 296.985289 219.869454 
z
" clip-path="url(#p525bf59329)" style="fill: #8f8f8f; fill-opacity: 0.82; stroke: #ffffff; stroke-opacity: 0.82; stroke-width: 0.4"/>
    <path d="M 296.491844 223.266763 
C 297.018598 223.266763 297.523849 223.057482 297.896321 222.68501 
C 298.268792 222.312539 298.478074 221.807288 298.478074 221.280534 
C 298.478074 220.75378 298.268792 220.248529 297.896321 219.876057 
C 297.523849 219.503586 297.018598 219.294304 296.491844 219.294304 
C 295.96509 219.294304 295.459839 219.503586 295.087368 219.876057 
C 294.714896 220.248529 294.505615 220.75378 294.505615 221.280534 
C 294.505615 221.807288 294.714896 222.312539 295.087368 222.68501 
C 295.459839 223.057482 295.96509 223.266763 296.491844 223.266763 
z
" clip-path="url(#p525bf59329)" style="fill: #8f8f8f; fill-opacity: 0.82; stroke: #ffffff; stroke-opacity: 0.82; stroke-width: 0.4"/>
    <path d="M 298.606847 228.235606 
C 299.141851 228.235606 299.655015 228.023047 300.03332 227.644742 
C 300.411625 227.266437 300.624184 226.753273 300.624184 226.218269 
C 300.624184 225.683265 300.411625 225.170101 300.03332 224.791796 
C 299.655015 224.413491 299.141851 224.200932 298.606847 224.200932 
C 298.071843 224.200932 297.558679 224.413491 297.180374 224.791796 
C 296.802069 225.170101 296.58951 225.683265 296.58951 226.218269 
C 296.58951 226.753273 296.802069 227.266437 297.180374 227.644742 
C 297.558679 228.023047 298.071843 228.235606 298.606847 228.235606 
z
" clip-path="url(#p525bf59329)" style="fill: #d8892b; fill-opacity: 0.82; stroke: #ffffff; stroke-opacity: 0.82; stroke-width: 0.4"/>
    <path d="M 301.594314 219.632244 
C 302.175148 219.632244 302.732271 219.401477 303.142983 218.990765 
C 303.553694 218.580053 303.784462 218.022931 303.784462 217.442097 
C 303.784462 216.861262 303.553694 216.30414 303.142983 215.893428 
C 302.732271 215.482716 302.175148 215.251949 301.594314 215.251949 
C 301.01348 215.251949 300.456357 215.482716 300.045646 215.893428 
C 299.634934 216.30414 299.404166 216.861262 299.404166 217.442097 
C 299.404166 218.022931 299.634934 218.580053 300.045646 218.990765 
C 300.456357 219.401477 301.01348 219.632244 301.594314 219.632244 
z
" clip-path="url(#p525bf59329)" style="fill: #8f8f8f; fill-opacity: 0.82; stroke: #ffffff; stroke-opacity: 0.82; stroke-width: 0.4"/>
    <path d="M 299.264061 223.767996 
C 299.809478 223.767996 300.332629 223.551299 300.718297 223.165631 
C 301.103965 222.779964 301.320661 222.256812 301.320661 221.711396 
C 301.320661 221.165979 301.103965 220.642828 300.718297 220.25716 
C 300.332629 219.871492 299.809478 219.654796 299.264061 219.654796 
C 298.718645 219.654796 298.195493 219.871492 297.809826 220.25716 
C 297.424158 220.642828 297.207461 221.165979 297.207461 221.711396 
C 297.207461 222.256812 297.424158 222.779964 297.809826 223.165631 
C 298.195493 223.551299 298.718645 223.767996 299.264061 223.767996 
z
" clip-path="url(#p525bf59329)" style="fill: #8f8f8f; fill-opacity: 0.82; stroke: #ffffff; stroke-opacity: 0.82; stroke-width: 0.4"/>
    <path d="M 301.623426 222.665178 
C 302.204689 222.665178 302.762223 222.43424 303.173238 222.023225 
C 303.584253 221.61221 303.815191 221.054676 303.815191 220.473413 
C 303.815191 219.89215 303.584253 219.334616 303.173238 218.923601 
C 302.762223 218.512587 302.204689 218.281648 301.623426 218.281648 
C 301.042163 218.281648 300.484629 218.512587 300.073614 218.923601 
C 299.662599 219.334616 299.431661 219.89215 299.431661 220.473413 
C 299.431661 221.054676 299.662599 221.61221 300.073614 222.023225 
C 300.484629 222.43424 301.042163 222.665178 301.623426 222.665178 
z
" clip-path="url(#p525bf59329)" style="fill: #8f8f8f; fill-opacity: 0.82; stroke: #ffffff; stroke-opacity: 0.82; stroke-width: 0.4"/>
    <path d="M 299.106953 224.840399 
C 299.649899 224.840399 300.17068 224.624685 300.554601 224.240764 
C 300.938521 223.856844 301.154236 223.336063 301.154236 222.793117 
C 301.154236 222.250171 300.938521 221.72939 300.554601 221.345469 
C 300.17068 220.961549 299.649899 220.745834 299.106953 220.745834 
C 298.564008 220.745834 298.043226 220.961549 297.659306 221.345469 
C 297.275385 221.72939 297.059671 222.250171 297.059671 222.793117 
C 297.059671 223.336063 297.275385 223.856844 297.659306 224.240764 
C 298.043226 224.624685 298.564008 224.840399 299.106953 224.840399 
z
" clip-path="url(#p525bf59329)" style="fill: #8f8f8f; fill-opacity: 0.82; stroke: #ffffff; stroke-opacity: 0.82; stroke-width: 0.4"/>
    <path d="M 298.911468 227.211353 
C 299.451323 227.211353 299.96914 226.996866 300.350876 226.615131 
C 300.732611 226.233395 300.947098 225.715579 300.947098 225.175723 
C 300.947098 224.635868 300.732611 224.118051 300.350876 223.736316 
C 299.96914 223.35458 299.451323 223.140094 298.911468 223.140094 
C 298.371613 223.140094 297.853796 223.35458 297.472061 223.736316 
C 297.090325 224.118051 296.875838 224.635868 296.875838 225.175723 
C 296.875838 225.715579 297.090325 226.233395 297.472061 226.615131 
C 297.853796 226.996866 298.371613 227.211353 298.911468 227.211353 
z
" clip-path="url(#p525bf59329)" style="fill: #8f8f8f; fill-opacity: 0.82; stroke: #ffffff; stroke-opacity: 0.82; stroke-width: 0.4"/>
    <path d="M 294.796127 221.650577 
C 295.349748 221.650577 295.88077 221.430621 296.272239 221.039151 
C 296.663709 220.647681 296.883665 220.11666 296.883665 219.563038 
C 296.883665 219.009417 296.663709 218.478395 296.272239 218.086926 
C 295.88077 217.695456 295.349748 217.4755 294.796127 217.4755 
C 294.242505 217.4755 293.711484 217.695456 293.320014 218.086926 
C 292.928544 218.478395 292.708588 219.009417 292.708588 219.563038 
C 292.708588 220.11666 292.928544 220.647681 293.320014 221.039151 
C 293.711484 221.430621 294.242505 221.650577 294.796127 221.650577 
z
" clip-path="url(#p525bf59329)" style="fill: #b64342; fill-opacity: 0.82; stroke: #ffffff; stroke-opacity: 0.82; stroke-width: 0.4"/>
    <path d="M 291.660376 220.257881 
C 292.260521 220.257881 292.836166 220.019441 293.260533 219.595074 
C 293.6849 219.170708 293.92334 218.595062 293.92334 217.994917 
C 293.92334 217.394772 293.6849 216.819127 293.260533 216.39476 
C 292.836166 215.970393 292.260521 215.731953 291.660376 215.731953 
C 291.060231 215.731953 290.484585 215.970393 290.060218 216.39476 
C 289.635852 216.819127 289.397412 217.394772 289.397412 217.994917 
C 289.397412 218.595062 289.635852 219.170708 290.060218 219.595074 
C 290.484585 220.019441 291.060231 220.257881 291.660376 220.257881 
z
" clip-path="url(#p525bf59329)" style="fill: #9a4d8e; fill-opacity: 0.82; stroke: #ffffff; stroke-opacity: 0.82; stroke-width: 0.4"/>
    <path d="M 293.664489 218.949986 
C 294.235338 218.949986 294.782883 218.723186 295.186534 218.319535 
C 295.590185 217.915884 295.816985 217.368339 295.816985 216.79749 
C 295.816985 216.226642 295.590185 215.679097 295.186534 215.275446 
C 294.782883 214.871795 294.235338 214.644994 293.664489 214.644994 
C 293.093641 214.644994 292.546096 214.871795 292.142445 215.275446 
C 291.738794 215.679097 291.511993 216.226642 291.511993 216.79749 
C 291.511993 217.368339 291.738794 217.915884 292.142445 218.319535 
C 292.546096 218.723186 293.093641 218.949986 293.664489 218.949986 
z
" clip-path="url(#p525bf59329)" style="fill: #8f8f8f; fill-opacity: 0.82; stroke: #ffffff; stroke-opacity: 0.82; stroke-width: 0.4"/>
    <path d="M 292.697577 225.92705 
C 293.282743 225.92705 293.844021 225.694561 294.257796 225.280786 
C 294.671571 224.867011 294.904061 224.305733 294.904061 223.720566 
C 294.904061 223.1354 294.671571 222.574122 294.257796 222.160347 
C 293.844021 221.746572 293.282743 221.514083 292.697577 221.514083 
C 292.112411 221.514083 291.551133 221.746572 291.137358 222.160347 
C 290.723583 222.574122 290.491094 223.1354 290.491094 223.720566 
C 290.491094 224.305733 290.723583 224.867011 291.137358 225.280786 
C 291.551133 225.694561 292.112411 225.92705 292.697577 225.92705 
z
" clip-path="url(#p525bf59329)" style="fill: #8f8f8f; fill-opacity: 0.82; stroke: #ffffff; stroke-opacity: 0.82; stroke-width: 0.4"/>
    <path d="M 290.588715 222.721745 
C 291.203954 222.721745 291.794077 222.477308 292.229116 222.042269 
C 292.664156 221.60723 292.908593 221.017107 292.908593 220.401868 
C 292.908593 219.786629 292.664156 219.196507 292.229116 218.761467 
C 291.794077 218.326428 291.203954 218.081991 290.588715 218.081991 
C 289.973477 218.081991 289.383354 218.326428 288.948314 218.761467 
C 288.513275 219.196507 288.268838 219.786629 288.268838 220.401868 
C 288.268838 221.017107 288.513275 221.60723 288.948314 222.042269 
C 289.383354 222.477308 289.973477 222.721745 290.588715 222.721745 
z
" clip-path="url(#p525bf59329)" style="fill: #9a4d8e; fill-opacity: 0.82; stroke: #ffffff; stroke-opacity: 0.82; stroke-width: 0.4"/>
    <path d="M 301.398227 219.292246 
C 301.976165 219.292246 302.530509 219.062629 302.939172 218.653966 
C 303.347836 218.245303 303.577453 217.690958 303.577453 217.113021 
C 303.577453 216.535083 303.347836 215.980739 302.939172 215.572076 
C 302.530509 215.163412 301.976165 214.933795 301.398227 214.933795 
C 300.82029 214.933795 300.265945 215.163412 299.857282 215.572076 
C 299.448619 215.980739 299.219002 216.535083 299.219002 217.113021 
C 299.219002 217.690958 299.448619 218.245303 299.857282 218.653966 
C 300.265945 219.062629 300.82029 219.292246 301.398227 219.292246 
z
" clip-path="url(#p525bf59329)" style="fill: #8f8f8f; fill-opacity: 0.82; stroke: #ffffff; stroke-opacity: 0.82; stroke-width: 0.4"/>
    <path d="M 287.40137 228.559426 
C 288.059457 228.559426 288.69068 228.297965 289.156018 227.832627 
C 289.621356 227.367289 289.882816 226.736067 289.882816 226.07798 
C 289.882816 225.419892 289.621356 224.78867 289.156018 224.323332 
C 288.69068 223.857994 288.059457 223.596533 287.40137 223.596533 
C 286.743282 223.596533 286.11206 223.857994 285.646722 224.323332 
C 285.181384 224.78867 284.919923 225.419892 284.919923 226.07798 
C 284.919923 226.736067 285.181384 227.367289 285.646722 227.832627 
C 286.11206 228.297965 286.743282 228.559426 287.40137 228.559426 
z
" clip-path="url(#p525bf59329)" style="fill: #0f4d92; fill-opacity: 0.82; stroke: #ffffff; stroke-opacity: 0.82; stroke-width: 0.4"/>
    <path d="M 289.389279 222.270378 
C 290.020984 222.270378 290.6269 222.019399 291.073582 221.572717 
C 291.520265 221.126034 291.771244 220.520118 291.771244 219.888414 
C 291.771244 219.256709 291.520265 218.650793 291.073582 218.204111 
C 290.6269 217.757428 290.020984 217.50645 289.389279 217.50645 
C 288.757575 217.50645 288.151659 217.757428 287.704976 218.204111 
C 287.258294 218.650793 287.007315 219.256709 287.007315 219.888414 
C 287.007315 220.520118 287.258294 221.126034 287.704976 221.572717 
C 288.151659 222.019399 288.757575 222.270378 289.389279 222.270378 
z
" clip-path="url(#p525bf59329)" style="fill: #0f4d92; fill-opacity: 0.82; stroke: #ffffff; stroke-opacity: 0.82; stroke-width: 0.4"/>
   </g>
   <g id="matplotlib.axis_1">
    <g id="xtick_1">
     <g id="line2d_1">
      <defs>
       <path id="me8692aab7b" d="M 0 0 
L 0 3.5 
" style="stroke: #000000; stroke-width: 0.8"/>
      </defs>
      <g>
       <use xlink:href="#me8692aab7b" x="89.389462" y="237.7995" style="stroke: #000000; stroke-width: 0.8"/>
      </g>
     </g>
     <g id="text_1">
      <text style="font: 8px 'Arial', 'DejaVu Sans', 'Liberation Sans', sans-serif; text-anchor: middle" x="89.389462" y="250.52575" transform="rotate(-0 89.389462 250.52575)">−0.6</text>
     </g>
    </g>
    <g id="xtick_2">
     <g id="line2d_2">
      <g>
       <use xlink:href="#me8692aab7b" x="158.690806" y="237.7995" style="stroke: #000000; stroke-width: 0.8"/>
      </g>
     </g>
     <g id="text_2">
      <text style="font: 8px 'Arial', 'DejaVu Sans', 'Liberation Sans', sans-serif; text-anchor: middle" x="158.690806" y="250.52575" transform="rotate(-0 158.690806 250.52575)">−0.4</text>
     </g>
    </g>
    <g id="xtick_3">
     <g id="line2d_3">
      <g>
       <use xlink:href="#me8692aab7b" x="227.992149" y="237.7995" style="stroke: #000000; stroke-width: 0.8"/>
      </g>
     </g>
     <g id="text_3">
      <text style="font: 8px 'Arial', 'DejaVu Sans', 'Liberation Sans', sans-serif; text-anchor: middle" x="227.992149" y="250.52575" transform="rotate(-0 227.992149 250.52575)">−0.2</text>
     </g>
    </g>
    <g id="xtick_4">
     <g id="line2d_4">
      <g>
       <use xlink:href="#me8692aab7b" x="297.293493" y="237.7995" style="stroke: #000000; stroke-width: 0.8"/>
      </g>
     </g>
     <g id="text_4">
      <text style="font: 8px 'Arial', 'DejaVu Sans', 'Liberation Sans', sans-serif; text-anchor: middle" x="297.293493" y="250.52575" transform="rotate(-0 297.293493 250.52575)">0.0</text>
     </g>
    </g>
    <g id="xtick_5">
     <g id="line2d_5">
      <g>
       <use xlink:href="#me8692aab7b" x="366.594836" y="237.7995" style="stroke: #000000; stroke-width: 0.8"/>
      </g>
     </g>
     <g id="text_5">
      <text style="font: 8px 'Arial', 'DejaVu Sans', 'Liberation Sans', sans-serif; text-anchor: middle" x="366.594836" y="250.52575" transform="rotate(-0 366.594836 250.52575)">0.2</text>
     </g>
    </g>
    <g id="xtick_6">
     <g id="line2d_6">
      <g>
       <use xlink:href="#me8692aab7b" x="435.896179" y="237.7995" style="stroke: #000000; stroke-width: 0.8"/>
      </g>
     </g>
     <g id="text_6">
      <text style="font: 8px 'Arial', 'DejaVu Sans', 'Liberation Sans', sans-serif; text-anchor: middle" x="435.896179" y="250.52575" transform="rotate(-0 435.896179 250.52575)">0.4</text>
     </g>
    </g>
    <g id="text_7">
     <text style="font: 8px 'Arial', 'DejaVu Sans', 'Liberation Sans', sans-serif; text-anchor: middle" x="267.696" y="261.86575" transform="rotate(-0 267.696 261.86575)">T48 primary-independent pooled gene contribution</text>
    </g>
   </g>
   <g id="matplotlib.axis_2">
    <g id="ytick_1">
     <g id="line2d_7">
      <defs>
       <path id="mcce59c073b" d="M 0 0 
L -3.5 0 
" style="stroke: #000000; stroke-width: 0.8"/>
      </defs>
      <g>
       <use xlink:href="#mcce59c073b" x="66.816" y="34.589243" style="stroke: #000000; stroke-width: 0.8"/>
      </g>
     </g>
     <g id="text_8">
      <text style="font: 8px 'Arial', 'DejaVu Sans', 'Liberation Sans', sans-serif; text-anchor: end" x="59.816" y="37.452368" transform="rotate(-0 59.816 37.452368)">SIG001</text>
     </g>
    </g>
    <g id="ytick_2">
     <g id="line2d_8">
      <g>
       <use xlink:href="#mcce59c073b" x="66.816" y="61.41339" style="stroke: #000000; stroke-width: 0.8"/>
      </g>
     </g>
     <g id="text_9">
      <text style="font: 8px 'Arial', 'DejaVu Sans', 'Liberation Sans', sans-serif; text-anchor: end" x="59.816" y="64.276515" transform="rotate(-0 59.816 64.276515)">SIG002</text>
     </g>
    </g>
    <g id="ytick_3">
     <g id="line2d_9">
      <g>
       <use xlink:href="#mcce59c073b" x="66.816" y="88.237537" style="stroke: #000000; stroke-width: 0.8"/>
      </g>
     </g>
     <g id="text_10">
      <text style="font: 8px 'Arial', 'DejaVu Sans', 'Liberation Sans', sans-serif; text-anchor: end" x="59.816" y="91.100662" transform="rotate(-0 59.816 91.100662)">SIG003</text>
     </g>
    </g>
    <g id="ytick_4">
     <g id="line2d_10">
      <g>
       <use xlink:href="#mcce59c073b" x="66.816" y="115.061684" style="stroke: #000000; stroke-width: 0.8"/>
      </g>
     </g>
     <g id="text_11">
      <text style="font: 8px 'Arial', 'DejaVu Sans', 'Liberation Sans', sans-serif; text-anchor: end" x="59.816" y="117.924809" transform="rotate(-0 59.816 117.924809)">SIG004</text>
     </g>
    </g>
    <g id="ytick_5">
     <g id="line2d_11">
      <g>
       <use xlink:href="#mcce59c073b" x="66.816" y="141.88583" style="stroke: #000000; stroke-width: 0.8"/>
      </g>
     </g>
     <g id="text_12">
      <text style="font: 8px 'Arial', 'DejaVu Sans', 'Liberation Sans', sans-serif; text-anchor: end" x="59.816" y="144.748955" transform="rotate(-0 59.816 144.748955)">SIG022</text>
     </g>
    </g>
    <g id="ytick_6">
     <g id="line2d_12">
      <g>
       <use xlink:href="#mcce59c073b" x="66.816" y="168.709977" style="stroke: #000000; stroke-width: 0.8"/>
      </g>
     </g>
     <g id="text_13">
      <text style="font: 8px 'Arial', 'DejaVu Sans', 'Liberation Sans', sans-serif; text-anchor: end" x="59.816" y="171.573102" transform="rotate(-0 59.816 171.573102)">SIG023</text>
     </g>
    </g>
    <g id="ytick_7">
     <g id="line2d_13">
      <g>
       <use xlink:href="#mcce59c073b" x="66.816" y="195.534124" style="stroke: #000000; stroke-width: 0.8"/>
      </g>
     </g>
     <g id="text_14">
      <text style="font: 8px 'Arial', 'DejaVu Sans', 'Liberation Sans', sans-serif; text-anchor: end" x="59.816" y="198.397249" transform="rotate(-0 59.816 198.397249)">SIG033</text>
     </g>
    </g>
    <g id="ytick_8">
     <g id="line2d_14">
      <g>
       <use xlink:href="#mcce59c073b" x="66.816" y="222.35827" style="stroke: #000000; stroke-width: 0.8"/>
      </g>
     </g>
     <g id="text_15">
      <text style="font: 8px 'Arial', 'DejaVu Sans', 'Liberation Sans', sans-serif; text-anchor: end" x="59.816" y="225.221395" transform="rotate(-0 59.816 225.221395)">SIG034</text>
     </g>
    </g>
   </g>
   <g id="line2d_15">
    <path d="M 297.293493 237.7995 
L 297.293493 20.0715 
" clip-path="url(#p525bf59329)" style="fill: none; stroke-dasharray: 2.96,1.28; stroke-dashoffset: 0; stroke: #767676; stroke-width: 0.8"/>
   </g>
   <g id="patch_3">
    <path d="M 66.816 237.7995 
L 66.816 20.0715 
" style="fill: none; stroke: #000000; stroke-width: 0.8; stroke-linejoin: miter; stroke-linecap: square"/>
   </g>
   <g id="patch_4">
    <path d="M 66.816 237.7995 
L 468.576 237.7995 
" style="fill: none; stroke: #000000; stroke-width: 0.8; stroke-linejoin: miter; stroke-linecap: square"/>
   </g>
   <g id="text_16">
    <text style="font: 700 6.5px 'Arial', 'DejaVu Sans', 'Liberation Sans', sans-serif; text-anchor: end" x="210.533983" y="36.274165" transform="rotate(-0 210.533983 36.274165)">CEACAM1</text>
   </g>
   <g id="text_17">
    <text style="font: 700 6.5px 'Arial', 'DejaVu Sans', 'Liberation Sans', sans-serif; text-anchor: start" x="89.077818" y="63.098312" transform="rotate(-0 89.077818 63.098312)">PLAC8</text>
   </g>
   <g id="text_18">
    <text style="font: 700 6.5px 'Arial', 'DejaVu Sans', 'Liberation Sans', sans-serif; text-anchor: start" x="115.261348" y="89.922459" transform="rotate(-0 115.261348 89.922459)">PLAC8</text>
   </g>
   <g id="text_19">
    <text style="font: 700 6.5px 'Arial', 'DejaVu Sans', 'Liberation Sans', sans-serif; text-anchor: start" x="454.314182" y="116.746605" transform="rotate(-0 454.314182 116.746605)">NLRP1</text>
   </g>
   <g id="text_20">
    <text style="font: 700 6.5px 'Arial', 'DejaVu Sans', 'Liberation Sans', sans-serif; text-anchor: start" x="345.898963" y="143.570752" transform="rotate(-0 345.898963 143.570752)">HK3</text>
   </g>
   <g id="text_21">
    <text style="font: 700 6.5px 'Arial', 'DejaVu Sans', 'Liberation Sans', sans-serif; text-anchor: end" x="250.904274" y="170.394899" transform="rotate(-0 250.904274 170.394899)">FAM89A</text>
   </g>
   <g id="text_22">
    <text style="font: 700 6.5px 'Arial', 'DejaVu Sans', 'Liberation Sans', sans-serif; text-anchor: end" x="225.841621" y="197.219046" transform="rotate(-0 225.841621 197.219046)">LTB</text>
   </g>
   <g id="text_23">
    <text style="font: 700 6.5px 'Arial', 'DejaVu Sans', 'Liberation Sans', sans-serif; text-anchor: start" x="329.126666" y="224.043192" transform="rotate(-0 329.126666 224.043192)">DEFA4</text>
   </g>
   <g id="text_24">
    <text style="font: 700 9.6px 'Arial', 'DejaVu Sans', 'Liberation Sans', sans-serif; text-anchor: start" x="66.816" y="14.0715" transform="rotate(-0 66.816 14.0715)">Exact gene contribution and potential blood-cell source</text>
   </g>
   <g id="legend_1">
    <g id="line2d_16">
     <defs>
      <path id="m278a56c459" d="M 0 2.5 
C 0.663008 2.5 1.29895 2.236584 1.767767 1.767767 
C 2.236584 1.29895 2.5 0.663008 2.5 0 
C 2.5 -0.663008 2.236584 -1.29895 1.767767 -1.767767 
C 1.29895 -2.236584 0.663008 -2.5 0 -2.5 
C -0.663008 -2.5 -1.29895 -2.236584 -1.767767 -1.767767 
C -2.236584 -1.29895 -2.5 -0.663008 -2.5 0 
C -2.5 0.663008 -2.236584 1.29895 -1.767767 1.767767 
C -1.29895 2.236584 -0.663008 2.5 0 2.5 
z
" style="stroke: #b64342"/>
     </defs>
     <g>
      <use xlink:href="#m278a56c459" x="173.248969" y="280.303792" style="fill: #b64342; stroke: #b64342"/>
     </g>
    </g>
    <g id="text_25">
     <text style="font: 6px 'Arial', 'DejaVu Sans', 'Liberation Sans', sans-serif; text-anchor: start" x="184.048969" y="282.403792" transform="rotate(-0 184.048969 282.403792)">Granulocyte</text>
    </g>
    <g id="line2d_17">
     <defs>
      <path id="mdfa64c41c4" d="M 0 2.5 
C 0.663008 2.5 1.29895 2.236584 1.767767 1.767767 
C 2.236584 1.29895 2.5 0.663008 2.5 0 
C 2.5 -0.663008 2.236584 -1.29895 1.767767 -1.767767 
C 1.29895 -2.236584 0.663008 -2.5 0 -2.5 
C -0.663008 -2.5 -1.29895 -2.236584 -1.767767 -1.767767 
C -2.236584 -1.29895 -2.5 -0.663008 -2.5 0 
C -2.5 0.663008 -2.236584 1.29895 -1.767767 1.767767 
C -1.29895 2.236584 -0.663008 2.5 0 2.5 
z
" style="stroke: #d8892b"/>
     </defs>
     <g>
      <use xlink:href="#mdfa64c41c4" x="173.248969" y="288.861292" style="fill: #d8892b; stroke: #d8892b"/>
     </g>
    </g>
    <g id="text_26">
     <text style="font: 6px 'Arial', 'DejaVu Sans', 'Liberation Sans', sans-serif; text-anchor: start" x="184.048969" y="290.961292" transform="rotate(-0 184.048969 290.961292)">Monocyte</text>
    </g>
    <g id="line2d_18">
     <defs>
      <path id="m89fc87ce45" d="M 0 2.5 
C 0.663008 2.5 1.29895 2.236584 1.767767 1.767767 
C 2.236584 1.29895 2.5 0.663008 2.5 0 
C 2.5 -0.663008 2.236584 -1.29895 1.767767 -1.767767 
C 1.29895 -2.236584 0.663008 -2.5 0 -2.5 
C -0.663008 -2.5 -1.29895 -2.236584 -1.767767 -1.767767 
C -2.236584 -1.29895 -2.5 -0.663008 -2.5 0 
C -2.5 0.663008 -2.236584 1.29895 -1.767767 1.767767 
C -1.29895 2.236584 -0.663008 2.5 0 2.5 
z
" style="stroke: #9a4d8e"/>
     </defs>
     <g>
      <use xlink:href="#m89fc87ce45" x="234.396469" y="280.303792" style="fill: #9a4d8e; stroke: #9a4d8e"/>
     </g>
    </g>
    <g id="text_27">
     <text style="font: 6px 'Arial', 'DejaVu Sans', 'Liberation Sans', sans-serif; text-anchor: start" x="245.196469" y="282.403792" transform="rotate(-0 245.196469 282.403792)">Dendritic</text>
    </g>
    <g id="line2d_19">
     <defs>
      <path id="m6e578d1bca" d="M 0 2.5 
C 0.663008 2.5 1.29895 2.236584 1.767767 1.767767 
C 2.236584 1.29895 2.5 0.663008 2.5 0 
C 2.5 -0.663008 2.236584 -1.29895 1.767767 -1.767767 
C 1.29895 -2.236584 0.663008 -2.5 0 -2.5 
C -0.663008 -2.5 -1.29895 -2.236584 -1.767767 -1.767767 
C -2.236584 -1.29895 -2.5 -0.663008 -2.5 0 
C -2.5 0.663008 -2.236584 1.29895 -1.767767 1.767767 
C -1.29895 2.236584 -0.663008 2.5 0 2.5 
z
" style="stroke: #3775ba"/>
     </defs>
     <g>
      <use xlink:href="#m6e578d1bca" x="234.396469" y="288.79098" style="fill: #3775ba; stroke: #3775ba"/>
     </g>
    </g>
    <g id="text_28">
     <text style="font: 6px 'Arial', 'DejaVu Sans', 'Liberation Sans', sans-serif; text-anchor: start" x="245.196469" y="290.89098" transform="rotate(-0 245.196469 290.89098)">B Lymphocyte</text>
    </g>
    <g id="line2d_20">
     <defs>
      <path id="m8a8e0fc696" d="M 0 2.5 
C 0.663008 2.5 1.29895 2.236584 1.767767 1.767767 
C 2.236584 1.29895 2.5 0.663008 2.5 0 
C 2.5 -0.663008 2.236584 -1.29895 1.767767 -1.767767 
C 1.29895 -2.236584 0.663008 -2.5 0 -2.5 
C -0.663008 -2.5 -1.29895 -2.236584 -1.767767 -1.767767 
C -2.236584 -1.29895 -2.5 -0.663008 -2.5 0 
C -2.5 0.663008 -2.236584 1.29895 -1.767767 1.767767 
C -1.29895 2.236584 -0.663008 2.5 0 2.5 
z
" style="stroke: #0f4d92"/>
     </defs>
     <g>
      <use xlink:href="#m8a8e0fc696" x="300.988031" y="280.303792" style="fill: #0f4d92; stroke: #0f4d92"/>
     </g>
    </g>
    <g id="text_29">
     <text style="font: 6px 'Arial', 'DejaVu Sans', 'Liberation Sans', sans-serif; text-anchor: start" x="311.788031" y="282.403792" transform="rotate(-0 311.788031 282.403792)">T Lymphocyte</text>
    </g>
    <g id="line2d_21">
     <defs>
      <path id="m3459e58afa" d="M 0 2.5 
C 0.663008 2.5 1.29895 2.236584 1.767767 1.767767 
C 2.236584 1.29895 2.5 0.663008 2.5 0 
C 2.5 -0.663008 2.236584 -1.29895 1.767767 -1.767767 
C 1.29895 -2.236584 0.663008 -2.5 0 -2.5 
C -0.663008 -2.5 -1.29895 -2.236584 -1.767767 -1.767767 
C -2.236584 -1.29895 -2.5 -0.663008 -2.5 0 
C -2.5 0.663008 -2.236584 1.29895 -1.767767 1.767767 
C -1.29895 2.236584 -0.663008 2.5 0 2.5 
z
" style="stroke: #8f8f8f"/>
     </defs>
     <g>
      <use xlink:href="#m3459e58afa" x="300.988031" y="288.861292" style="fill: #8f8f8f; stroke: #8f8f8f"/>
     </g>
    </g>
    <g id="text_30">
     <text style="font: 6px 'Arial', 'DejaVu Sans', 'Liberation Sans', sans-serif; text-anchor: start" x="311.788031" y="290.961292" transform="rotate(-0 311.788031 290.961292)">Broad Or Unresolved</text>
    </g>
   </g>
  </g>
  <g id="text_31">
   <text style="fill: #555555; font: 6.5px 'Arial', 'DejaVu Sans', 'Liberation Sans', sans-serif; text-anchor: start" x="7.2" y="320.7435" transform="rotate(-0 7.2 320.7435)">Point size is the gene share of total absolute contribution within a signature. Labels mark the largest absolute contributor.</text>
  </g>
 </g>
 <defs>
  <clipPath id="p525bf59329">
   <rect x="66.816" y="20.0715" width="401.76" height="217.728"/>
  </clipPath>
 </defs>
</svg>
