<?xml version="1.0" encoding="utf-8" standalone="no"?>
<!DOCTYPE svg PUBLIC "-//W3C//DTD SVG 1.1//EN"
  "http://www.w3.org/Graphics/SVG/1.1/DTD/svg11.dtd">
<svg xmlns:xlink="http://www.w3.org/1999/xlink" width="497.272167pt" height="419.31625pt" viewBox="0 0 497.272167 419.31625" xmlns="http://www.w3.org/2000/svg" version="1.1">
 <metadata>
  <rdf:RDF xmlns:dc="http://purl.org/dc/elements/1.1/" xmlns:cc="http://creativecommons.org/ns#" xmlns:rdf="http://www.w3.org/1999/02/22-rdf-syntax-ns#">
   <cc:Work>
    <dc:type rdf:resource="http://purl.org/dc/dcmitype/StillImage"/>
    <dc:date>2026-07-18T00:59:01.867962</dc:date>
    <dc:format>image/svg+xml</dc:format>
    <dc:creator>
     <cc:Agent>
      <dc:title>Matplotlib v3.9.4, https://matplotlib.org/</dc:title>
     </cc:Agent>
    </dc:creator>
   </cc:Work>
  </rdf:RDF>
 </metadata>
 <defs>
  <style type="text/css">*{stroke-linejoin: round; stroke-linecap: butt}</style>
 </defs>
 <g id="figure_1">
  <g id="patch_1">
   <path d="M 0 419.31625
L 497.272167 419.31625
L 497.272167 0
L 0 0
z
" style="fill: #ffffff"/>
  </g>
  <g id="axes_1">
   <g id="patch_2">
    <path d="M 61.632 397.8
L 252.374395 397.8
L 252.374395 54.072
L 61.632 54.072
z
" style="fill: #ffffff"/>
   </g>
   <g id="matplotlib.axis_1">
    <g id="xtick_1">
     <g id="line2d_1">
      <defs>
       <path id="m7b0a7f08d8" d="M 0 0
L 0 3.5
" style="stroke: #000000; stroke-width: 0.8"/>
      </defs>
      <g>
       <use xlink:href="#m7b0a7f08d8" x="67.911585" y="397.8" style="stroke: #000000; stroke-width: 0.8"/>
      </g>
     </g>
     <g id="text_1">
      <text style="font: 8px 'Arial', 'DejaVu Sans', 'Liberation Sans', sans-serif; text-anchor: middle" x="67.911585" y="410.52625" transform="rotate(-0 67.911585 410.52625)">Baseline</text>
     </g>
    </g>
    <g id="xtick_2">
     <g id="line2d_2">
      <g>
       <use xlink:href="#m7b0a7f08d8" x="146.406398" y="397.8" style="stroke: #000000; stroke-width: 0.8"/>
      </g>
     </g>
     <g id="text_2">
      <text style="font: 8px 'Arial', 'DejaVu Sans', 'Liberation Sans', sans-serif; text-anchor: middle" x="146.406398" y="410.52625" transform="rotate(-0 146.406398 410.52625)">T24</text>
     </g>
    </g>
    <g id="xtick_3">
     <g id="line2d_3">
      <g>
       <use xlink:href="#m7b0a7f08d8" x="224.90121" y="397.8" style="stroke: #000000; stroke-width: 0.8"/>
      </g>
     </g>
     <g id="text_3">
      <text style="font: 8px 'Arial', 'DejaVu Sans', 'Liberation Sans', sans-serif; text-anchor: middle" x="224.90121" y="410.52625" transform="rotate(-0 224.90121 410.52625)">T48</text>
     </g>
    </g>
   </g>
   <g id="matplotlib.axis_2">
    <g id="ytick_1">
     <g id="line2d_4">
      <defs>
       <path id="m9c8aa3fa0c" d="M 0 0
L -3.5 0
" style="stroke: #000000; stroke-width: 0.8"/>
      </defs>
      <g>
       <use xlink:href="#m9c8aa3fa0c" x="61.632" y="362.860796" style="stroke: #000000; stroke-width: 0.8"/>
      </g>
     </g>
     <g id="text_4">
      <text style="font: 8px 'Arial', 'DejaVu Sans', 'Liberation Sans', sans-serif; text-anchor: end" x="54.632" y="365.723921" transform="rotate(-0 54.632 365.723921)">−0.8</text>
     </g>
    </g>
    <g id="ytick_2">
     <g id="line2d_5">
      <g>
       <use xlink:href="#m9c8aa3fa0c" x="61.632" y="323.700237" style="stroke: #000000; stroke-width: 0.8"/>
      </g>
     </g>
     <g id="text_5">
      <text style="font: 8px 'Arial', 'DejaVu Sans', 'Liberation Sans', sans-serif; text-anchor: end" x="54.632" y="326.563362" transform="rotate(-0 54.632 326.563362)">−0.6</text>
     </g>
    </g>
    <g id="ytick_3">
     <g id="line2d_6">
      <g>
       <use xlink:href="#m9c8aa3fa0c" x="61.632" y="284.539678" style="stroke: #000000; stroke-width: 0.8"/>
      </g>
     </g>
     <g id="text_6">
      <text style="font: 8px 'Arial', 'DejaVu Sans', 'Liberation Sans', sans-serif; text-anchor: end" x="54.632" y="287.402803" transform="rotate(-0 54.632 287.402803)">−0.4</text>
     </g>
    </g>
    <g id="ytick_4">
     <g id="line2d_7">
      <g>
       <use xlink:href="#m9c8aa3fa0c" x="61.632" y="245.379118" style="stroke: #000000; stroke-width: 0.8"/>
      </g>
     </g>
     <g id="text_7">
      <text style="font: 8px 'Arial', 'DejaVu Sans', 'Liberation Sans', sans-serif; text-anchor: end" x="54.632" y="248.242243" transform="rotate(-0 54.632 248.242243)">−0.2</text>
     </g>
    </g>
    <g id="ytick_5">
     <g id="line2d_8">
      <g>
       <use xlink:href="#m9c8aa3fa0c" x="61.632" y="206.218559" style="stroke: #000000; stroke-width: 0.8"/>
      </g>
     </g>
     <g id="text_8">
      <text style="font: 8px 'Arial', 'DejaVu Sans', 'Liberation Sans', sans-serif; text-anchor: end" x="54.632" y="209.081684" transform="rotate(-0 54.632 209.081684)">0.0</text>
     </g>
    </g>
    <g id="ytick_6">
     <g id="line2d_9">
      <g>
       <use xlink:href="#m9c8aa3fa0c" x="61.632" y="167.058" style="stroke: #000000; stroke-width: 0.8"/>
      </g>
     </g>
     <g id="text_9">
      <text style="font: 8px 'Arial', 'DejaVu Sans', 'Liberation Sans', sans-serif; text-anchor: end" x="54.632" y="169.921125" transform="rotate(-0 54.632 169.921125)">0.2</text>
     </g>
    </g>
    <g id="ytick_7">
     <g id="line2d_10">
      <g>
       <use xlink:href="#m9c8aa3fa0c" x="61.632" y="127.897441" style="stroke: #000000; stroke-width: 0.8"/>
      </g>
     </g>
     <g id="text_10">
      <text style="font: 8px 'Arial', 'DejaVu Sans', 'Liberation Sans', sans-serif; text-anchor: end" x="54.632" y="130.760566" transform="rotate(-0 54.632 130.760566)">0.4</text>
     </g>
    </g>
    <g id="ytick_8">
     <g id="line2d_11">
      <g>
       <use xlink:href="#m9c8aa3fa0c" x="61.632" y="88.736881" style="stroke: #000000; stroke-width: 0.8"/>
      </g>
     </g>
     <g id="text_11">
      <text style="font: 8px 'Arial', 'DejaVu Sans', 'Liberation Sans', sans-serif; text-anchor: end" x="54.632" y="91.600006" transform="rotate(-0 54.632 91.600006)">0.6</text>
     </g>
    </g>
    <g id="text_12">
     <text style="font: 8px 'Arial', 'DejaVu Sans', 'Liberation Sans', sans-serif; text-anchor: middle" x="33.15575" y="225.936" transform="rotate(-90 33.15575 225.936)">Pooled within-patient change (delta Z)</text>
    </g>
   </g>
   <g id="line2d_12">
    <path d="M 67.911585 206.218559
L 146.406398 280.276548
L 224.90121 373.382472
" clip-path="url(#p57a4e5ea31)" style="fill: none; stroke: #7a5aa6; stroke-opacity: 0.95; stroke-width: 1.7; stroke-linecap: square"/>
    <defs>
     <path id="m72a505a14a" d="M 0 2.1
C 0.556927 2.1 1.091118 1.878731 1.484924 1.484924
C 1.878731 1.091118 2.1 0.556927 2.1 0
C 2.1 -0.556927 1.878731 -1.091118 1.484924 -1.484924
C 1.091118 -1.878731 0.556927 -2.1 0 -2.1
C -0.556927 -2.1 -1.091118 -1.878731 -1.484924 -1.484924
C -1.878731 -1.091118 -2.1 -0.556927 -2.1 0
C -2.1 0.556927 -1.878731 1.091118 -1.484924 1.484924
C -1.091118 1.878731 -0.556927 2.1 0 2.1
z
" style="stroke: #7a5aa6; stroke-opacity: 0.95"/>
    </defs>
    <g clip-path="url(#p57a4e5ea31)">
     <use xlink:href="#m72a505a14a" x="67.911585" y="206.218559" style="fill: #7a5aa6; fill-opacity: 0.95; stroke: #7a5aa6; stroke-opacity: 0.95"/>
     <use xlink:href="#m72a505a14a" x="146.406398" y="280.276548" style="fill: #7a5aa6; fill-opacity: 0.95; stroke: #7a5aa6; stroke-opacity: 0.95"/>
     <use xlink:href="#m72a505a14a" x="224.90121" y="373.382472" style="fill: #7a5aa6; fill-opacity: 0.95; stroke: #7a5aa6; stroke-opacity: 0.95"/>
    </g>
   </g>
   <g id="line2d_13">
    <path d="M 67.911585 206.218559
L 146.406398 220.096217
L 224.90121 341.046322
" clip-path="url(#p57a4e5ea31)" style="fill: none; stroke: #2f6b8a; stroke-opacity: 0.95; stroke-width: 1.7; stroke-linecap: square"/>
    <defs>
     <path id="mc941748328" d="M 0 2.1
C 0.556927 2.1 1.091118 1.878731 1.484924 1.484924
C 1.878731 1.091118 2.1 0.556927 2.1 0
C 2.1 -0.556927 1.878731 -1.091118 1.484924 -1.484924
C 1.091118 -1.878731 0.556927 -2.1 0 -2.1
C -0.556927 -2.1 -1.091118 -1.878731 -1.484924 -1.484924
C -1.878731 -1.091118 -2.1 -0.556927 -2.1 0
C -2.1 0.556927 -1.878731 1.091118 -1.484924 1.484924
C -1.091118 1.878731 -0.556927 2.1 0 2.1
z
" style="stroke: #2f6b8a; stroke-opacity: 0.95"/>
    </defs>
    <g clip-path="url(#p57a4e5ea31)">
     <use xlink:href="#mc941748328" x="67.911585" y="206.218559" style="fill: #2f6b8a; fill-opacity: 0.95; stroke: #2f6b8a; stroke-opacity: 0.95"/>
     <use xlink:href="#mc941748328" x="146.406398" y="220.096217" style="fill: #2f6b8a; fill-opacity: 0.95; stroke: #2f6b8a; stroke-opacity: 0.95"/>
     <use xlink:href="#mc941748328" x="224.90121" y="341.046322" style="fill: #2f6b8a; fill-opacity: 0.95; stroke: #2f6b8a; stroke-opacity: 0.95"/>
    </g>
   </g>
   <g id="line2d_14">
    <path d="M 67.911585 206.218559
L 146.406398 240.109791
L 224.90121 382.176
" clip-path="url(#p57a4e5ea31)" style="fill: none; stroke: #b24745; stroke-opacity: 0.95; stroke-width: 1.7; stroke-linecap: square"/>
    <defs>
     <path id="mfd403ebf6f" d="M 0 2.1
C 0.556927 2.1 1.091118 1.878731 1.484924 1.484924
C 1.878731 1.091118 2.1 0.556927 2.1 0
C 2.1 -0.556927 1.878731 -1.091118 1.484924 -1.484924
C 1.091118 -1.878731 0.556927 -2.1 0 -2.1
C -0.556927 -2.1 -1.091118 -1.878731 -1.484924 -1.484924
C -1.878731 -1.091118 -2.1 -0.556927 -2.1 0
C -2.1 0.556927 -1.878731 1.091118 -1.484924 1.484924
C -1.091118 1.878731 -0.556927 2.1 0 2.1
z
" style="stroke: #b24745; stroke-opacity: 0.95"/>
    </defs>
    <g clip-path="url(#p57a4e5ea31)">
     <use xlink:href="#mfd403ebf6f" x="67.911585" y="206.218559" style="fill: #b24745; fill-opacity: 0.95; stroke: #b24745; stroke-opacity: 0.95"/>
     <use xlink:href="#mfd403ebf6f" x="146.406398" y="240.109791" style="fill: #b24745; fill-opacity: 0.95; stroke: #b24745; stroke-opacity: 0.95"/>
     <use xlink:href="#mfd403ebf6f" x="224.90121" y="382.176" style="fill: #b24745; fill-opacity: 0.95; stroke: #b24745; stroke-opacity: 0.95"/>
    </g>
   </g>
   <g id="line2d_15">
    <path d="M 67.911585 206.218559
L 146.406398 200.939044
L 224.90121 69.696
" clip-path="url(#p57a4e5ea31)" style="fill: none; stroke: #b24745; stroke-opacity: 0.95; stroke-width: 1.7; stroke-linecap: square"/>
    <g clip-path="url(#p57a4e5ea31)">
     <use xlink:href="#mfd403ebf6f" x="67.911585" y="206.218559" style="fill: #b24745; fill-opacity: 0.95; stroke: #b24745; stroke-opacity: 0.95"/>
     <use xlink:href="#mfd403ebf6f" x="146.406398" y="200.939044" style="fill: #b24745; fill-opacity: 0.95; stroke: #b24745; stroke-opacity: 0.95"/>
     <use xlink:href="#mfd403ebf6f" x="224.90121" y="69.696" style="fill: #b24745; fill-opacity: 0.95; stroke: #b24745; stroke-opacity: 0.95"/>
    </g>
   </g>
   <g id="line2d_16">
    <path d="M 67.911585 206.218559
L 146.406398 217.347951
L 224.90121 178.997847
" clip-path="url(#p57a4e5ea31)" style="fill: none; stroke: #7a5aa6; stroke-opacity: 0.95; stroke-width: 1.7; stroke-linecap: square"/>
    <g clip-path="url(#p57a4e5ea31)">
     <use xlink:href="#m72a505a14a" x="67.911585" y="206.218559" style="fill: #7a5aa6; fill-opacity: 0.95; stroke: #7a5aa6; stroke-opacity: 0.95"/>
     <use xlink:href="#m72a505a14a" x="146.406398" y="217.347951" style="fill: #7a5aa6; fill-opacity: 0.95; stroke: #7a5aa6; stroke-opacity: 0.95"/>
     <use xlink:href="#m72a505a14a" x="224.90121" y="178.997847" style="fill: #7a5aa6; fill-opacity: 0.95; stroke: #7a5aa6; stroke-opacity: 0.95"/>
    </g>
   </g>
   <g id="line2d_17">
    <path d="M 67.911585 206.218559
L 146.406398 197.053221
L 224.90121 216.519847
" clip-path="url(#p57a4e5ea31)" style="fill: none; stroke: #b24745; stroke-opacity: 0.95; stroke-width: 1.7; stroke-linecap: square"/>
    <g clip-path="url(#p57a4e5ea31)">
     <use xlink:href="#mfd403ebf6f" x="67.911585" y="206.218559" style="fill: #b24745; fill-opacity: 0.95; stroke: #b24745; stroke-opacity: 0.95"/>
     <use xlink:href="#mfd403ebf6f" x="146.406398" y="197.053221" style="fill: #b24745; fill-opacity: 0.95; stroke: #b24745; stroke-opacity: 0.95"/>
     <use xlink:href="#mfd403ebf6f" x="224.90121" y="216.519847" style="fill: #b24745; fill-opacity: 0.95; stroke: #b24745; stroke-opacity: 0.95"/>
    </g>
   </g>
   <g id="line2d_18">
    <path d="M 67.911585 206.218559
L 146.406398 237.981394
L 224.90121 229.665063
" clip-path="url(#p57a4e5ea31)" style="fill: none; stroke: #7a5aa6; stroke-opacity: 0.95; stroke-width: 1.7; stroke-linecap: square"/>
    <g clip-path="url(#p57a4e5ea31)">
     <use xlink:href="#m72a505a14a" x="67.911585" y="206.218559" style="fill: #7a5aa6; fill-opacity: 0.95; stroke: #7a5aa6; stroke-opacity: 0.95"/>
     <use xlink:href="#m72a505a14a" x="146.406398" y="237.981394" style="fill: #7a5aa6; fill-opacity: 0.95; stroke: #7a5aa6; stroke-opacity: 0.95"/>
     <use xlink:href="#m72a505a14a" x="224.90121" y="229.665063" style="fill: #7a5aa6; fill-opacity: 0.95; stroke: #7a5aa6; stroke-opacity: 0.95"/>
    </g>
   </g>
   <g id="line2d_19">
    <path d="M 67.911585 206.218559
L 146.406398 200.30979
L 224.90121 219.955323
" clip-path="url(#p57a4e5ea31)" style="fill: none; stroke: #7a5aa6; stroke-opacity: 0.95; stroke-width: 1.7; stroke-linecap: square"/>
    <g clip-path="url(#p57a4e5ea31)">
     <use xlink:href="#m72a505a14a" x="67.911585" y="206.218559" style="fill: #7a5aa6; fill-opacity: 0.95; stroke: #7a5aa6; stroke-opacity: 0.95"/>
     <use xlink:href="#m72a505a14a" x="146.406398" y="200.30979" style="fill: #7a5aa6; fill-opacity: 0.95; stroke: #7a5aa6; stroke-opacity: 0.95"/>
     <use xlink:href="#m72a505a14a" x="224.90121" y="219.955323" style="fill: #7a5aa6; fill-opacity: 0.95; stroke: #7a5aa6; stroke-opacity: 0.95"/>
    </g>
   </g>
   <g id="line2d_20">
    <path d="M 61.632 206.218559
L 252.374395 206.218559
" clip-path="url(#p57a4e5ea31)" style="fill: none; stroke-dasharray: 2.96,1.28; stroke-dashoffset: 0; stroke: #777777; stroke-width: 0.8"/>
   </g>
   <g id="patch_3">
    <path d="M 61.632 397.8
L 61.632 54.072
" style="fill: none; stroke: #000000; stroke-width: 0.8; stroke-linejoin: miter; stroke-linecap: square"/>
   </g>
   <g id="patch_4">
    <path d="M 61.632 397.8
L 252.374395 397.8
" style="fill: none; stroke: #000000; stroke-width: 0.8; stroke-linejoin: miter; stroke-linecap: square"/>
   </g>
   <g id="text_13">
    <text style="font: 700 11px 'Arial', 'DejaVu Sans', 'Liberation Sans', sans-serif; text-anchor: start" x="42.557761" y="38.152099" transform="rotate(-0 42.557761 38.152099)">a</text>
   </g>
   <g id="text_14">
    <text style="fill: #7a5aa6; font: 700 6.4px 'Arial', 'DejaVu Sans', 'Liberation Sans', sans-serif; text-anchor: start" x="229.90121" y="382.041472" transform="rotate(-0 229.90121 382.041472)">SIG001</text>
   </g>
   <g id="text_15">
    <text style="fill: #2f6b8a; font: 700 6.4px 'Arial', 'DejaVu Sans', 'Liberation Sans', sans-serif; text-anchor: start" x="229.90121" y="340.705322" transform="rotate(-0 229.90121 340.705322)">SIG002</text>
   </g>
   <g id="text_16">
    <text style="fill: #b24745; font: 700 6.4px 'Arial', 'DejaVu Sans', 'Liberation Sans', sans-serif; text-anchor: start" x="229.90121" y="395.835" transform="rotate(-0 229.90121 395.835)">SIG003</text>
   </g>
   <g id="text_17">
    <text style="fill: #b24745; font: 700 6.4px 'Arial', 'DejaVu Sans', 'Liberation Sans', sans-serif; text-anchor: start" x="229.90121" y="69.355" transform="rotate(-0 229.90121 69.355)">SIG004</text>
   </g>
   <g id="text_18">
    <text style="fill: #7a5aa6; font: 700 6.4px 'Arial', 'DejaVu Sans', 'Liberation Sans', sans-serif; text-anchor: start" x="229.90121" y="178.656847" transform="rotate(-0 229.90121 178.656847)">SIG022</text>
   </g>
   <g id="text_19">
    <text style="fill: #b24745; font: 700 6.4px 'Arial', 'DejaVu Sans', 'Liberation Sans', sans-serif; text-anchor: start" x="229.90121" y="211.178847" transform="rotate(-0 229.90121 211.178847)">SIG023</text>
   </g>
   <g id="text_20">
    <text style="fill: #7a5aa6; font: 700 6.4px 'Arial', 'DejaVu Sans', 'Liberation Sans', sans-serif; text-anchor: start" x="229.90121" y="238.324063" transform="rotate(-0 229.90121 238.324063)">SIG033</text>
   </g>
   <g id="text_21">
    <text style="fill: #7a5aa6; font: 700 6.4px 'Arial', 'DejaVu Sans', 'Liberation Sans', sans-serif; text-anchor: start" x="229.90121" y="223.614323" transform="rotate(-0 229.90121 223.614323)">SIG034</text>
   </g>
   <g id="text_22">
    <text style="font: 700 9.6px 'Arial', 'DejaVu Sans', 'Liberation Sans', sans-serif; text-anchor: start" x="61.632" y="48.072" transform="rotate(-0 61.632 48.072)">The apparent signature state depends on sampling time</text>
   </g>
  </g>
  <g id="axes_2">
   <g id="patch_5">
    <path d="M 322.525209 138.972816
L 460.142315 138.972816
Q 462.261675 138.972816 462.261675 133.816896
L 462.261675 99.787824
Q 462.261675 94.631904 460.142315 94.631904
L 322.525209 94.631904
Q 320.405849 94.631904 320.405849 99.787824
L 320.405849 133.816896
Q 320.405849 138.972816 322.525209 138.972816
z
" clip-path="url(#pdd43849dad)" style="fill: #f2f6f8; stroke: #cfd9df; stroke-width: 0.7; stroke-linejoin: miter"/>
   </g>
   <g id="patch_6">
    <path d="M 322.525209 187.094736
L 460.142315 187.094736
Q 462.261675 187.094736 462.261675 181.938816
L 462.261675 147.909744
Q 462.261675 142.753824 460.142315 142.753824
L 322.525209 142.753824
Q 320.405849 142.753824 320.405849 147.909744
L 320.405849 181.938816
Q 320.405849 187.094736 322.525209 187.094736
z
" clip-path="url(#pdd43849dad)" style="fill: #f2f6f8; stroke: #cfd9df; stroke-width: 0.7; stroke-linejoin: miter"/>
   </g>
   <g id="patch_7">
    <path d="M 322.525209 235.216656
L 460.142315 235.216656
Q 462.261675 235.216656 462.261675 230.060736
L 462.261675 196.031664
Q 462.261675 190.875744 460.142315 190.875744
L 322.525209 190.875744
Q 320.405849 190.875744 320.405849 196.031664
L 320.405849 230.060736
Q 320.405849 235.216656 322.525209 235.216656
z
" clip-path="url(#pdd43849dad)" style="fill: #f2f6f8; stroke: #cfd9df; stroke-width: 0.7; stroke-linejoin: miter"/>
   </g>
   <g id="patch_8">
    <path d="M 322.525209 283.338576
L 460.142315 283.338576
Q 462.261675 283.338576 462.261675 278.182656
L 462.261675 244.153584
Q 462.261675 238.997664 460.142315 238.997664
L 322.525209 238.997664
Q 320.405849 238.997664 320.405849 244.153584
L 320.405849 278.182656
Q 320.405849 283.338576 322.525209 283.338576
z
" clip-path="url(#pdd43849dad)" style="fill: #f2f6f8; stroke: #cfd9df; stroke-width: 0.7; stroke-linejoin: miter"/>
   </g>
   <g id="patch_9">
    <path d="M 322.525209 331.460496
L 460.142315 331.460496
Q 462.261675 331.460496 462.261675 326.304576
L 462.261675 292.275504
Q 462.261675 287.119584 460.142315 287.119584
L 322.525209 287.119584
Q 320.405849 287.119584 320.405849 292.275504
L 320.405849 326.304576
Q 320.405849 331.460496 322.525209 331.460496
z
" clip-path="url(#pdd43849dad)" style="fill: #f2f6f8; stroke: #cfd9df; stroke-width: 0.7; stroke-linejoin: miter"/>
   </g>
   <g id="patch_10">
    <path d="M 322.525209 379.582416
L 460.142315 379.582416
Q 462.261675 379.582416 462.261675 374.426496
L 462.261675 340.397424
Q 462.261675 335.241504 460.142315 335.241504
L 322.525209 335.241504
Q 320.405849 335.241504 320.405849 340.397424
L 320.405849 374.426496
Q 320.405849 379.582416 322.525209 379.582416
z
" clip-path="url(#pdd43849dad)" style="fill: #fff3d5; stroke: #cfd9df; stroke-width: 0.7; stroke-linejoin: miter"/>
   </g>
   <g id="text_23">
    <text style="font: 700 11px 'Arial', 'DejaVu Sans', 'Liberation Sans', sans-serif; text-anchor: start" x="307.972271" y="38.152099" transform="rotate(-0 307.972271 38.152099)">b</text>
   </g>
   <g id="text_24">
    <text style="font: 700 8px 'Arial', 'DejaVu Sans', 'Liberation Sans', sans-serif; text-anchor: start" x="322.101337" y="66.77031" transform="rotate(-0 322.101337 66.77031)">Temporal measurement-context framework</text>
   </g>
   <g id="text_25">
    <text style="font: 700 6.8px 'Arial', 'DejaVu Sans', 'Liberation Sans', sans-serif; text-anchor: start" x="326.340057" y="110.831167" transform="rotate(-0 326.340057 110.831167)">Formula</text>
   </g>
   <g id="text_26">
    <text style="font: 5.9px 'Arial', 'DejaVu Sans', 'Liberation Sans', sans-serif" transform="translate(387.095042 107.544551)">Preserve the published gene set</text>
    <text style="font: 5.9px 'Arial', 'DejaVu Sans', 'Liberation Sans', sans-serif" transform="translate(387.095042 113.642893)">and coefficients</text>
   </g>
   <g id="text_27">
    <text style="font: 700 6.8px 'Arial', 'DejaVu Sans', 'Liberation Sans', sans-serif; text-anchor: start" x="326.340057" y="158.953088" transform="rotate(-0 326.340057 158.953088)">Baseline</text>
   </g>
   <g id="text_28">
    <text style="font: 5.9px 'Arial', 'DejaVu Sans', 'Liberation Sans', sans-serif" transform="translate(387.095042 155.666471)">Anchor change to the source study's</text>
    <text style="font: 5.9px 'Arial', 'DejaVu Sans', 'Liberation Sans', sans-serif" transform="translate(387.095042 161.764813)">locked initial sample</text>
   </g>
   <g id="text_29">
    <text style="font: 700 6.8px 'Arial', 'DejaVu Sans', 'Liberation Sans', sans-serif" transform="translate(326.340057 203.967195)">Sampling</text>
    <text style="font: 700 6.8px 'Arial', 'DejaVu Sans', 'Liberation Sans', sans-serif" transform="translate(326.340057 210.265695)">window</text>
   </g>
   <g id="text_30">
    <text style="font: 5.9px 'Arial', 'DejaVu Sans', 'Liberation Sans', sans-serif" transform="translate(387.095042 203.721233)">Report T24 and T48 separately,</text>
    <text style="font: 5.9px 'Arial', 'DejaVu Sans', 'Liberation Sans', sans-serif" transform="translate(387.095042 209.902266)">not as interchangeable follow-up</text>
   </g>
   <g id="text_31">
    <text style="font: 700 6.8px 'Arial', 'DejaVu Sans', 'Liberation Sans', sans-serif" transform="translate(326.340057 252.092303)">Cohort</text>
    <text style="font: 700 6.8px 'Arial', 'DejaVu Sans', 'Liberation Sans', sans-serif" transform="translate(326.340057 258.301553)">transport</text>
   </g>
   <g id="text_32">
    <text style="font: 5.9px 'Arial', 'DejaVu Sans', 'Liberation Sans', sans-serif" transform="translate(387.095042 251.980835)">Interpret pooled means with confidence</text>
    <text style="font: 5.9px 'Arial', 'DejaVu Sans', 'Liberation Sans', sans-serif" transform="translate(387.095042 258.010036)">and prediction intervals</text>
   </g>
   <g id="text_33">
    <text style="font: 700 6.8px 'Arial', 'DejaVu Sans', 'Liberation Sans', sans-serif; text-anchor: start" x="326.340057" y="303.318848" transform="rotate(-0 326.340057 303.318848)">Architecture</text>
   </g>
   <g id="text_34">
    <text style="font: 5.9px 'Arial', 'DejaVu Sans', 'Liberation Sans', sans-serif" transform="translate(387.095042 300.068185)">Distinguish dominance, multigene drift,</text>
    <text style="font: 5.9px 'Arial', 'DejaVu Sans', 'Liberation Sans', sans-serif" transform="translate(387.095042 306.166526)">cancellation, and cohort dependence</text>
   </g>
   <g id="text_35">
    <text style="font: 700 6.8px 'Arial', 'DejaVu Sans', 'Liberation Sans', sans-serif" transform="translate(326.340057 348.291518)">Claim</text>
    <text style="font: 700 6.8px 'Arial', 'DejaVu Sans', 'Liberation Sans', sans-serif" transform="translate(326.340057 354.500768)">boundary</text>
   </g>
   <g id="text_36">
    <text style="font: 5.9px 'Arial', 'DejaVu Sans', 'Liberation Sans', sans-serif" transform="translate(387.095042 348.190105)">Do not infer monitoring, prognosis,</text>
    <text style="font: 5.9px 'Arial', 'DejaVu Sans', 'Liberation Sans', sans-serif" transform="translate(387.095042 354.288446)">treatment response, or mechanism</text>
   </g>
  </g>
  <g id="text_37">
   <text style="font: 700 12px 'Arial', 'DejaVu Sans', 'Liberation Sans', sans-serif; text-anchor: start" x="7.2" y="15.935625" transform="rotate(-0 7.2 15.935625)">Sampling time is part of the context for fixed transcriptomic scores</text>
  </g>
 </g>
 <defs>
  <clipPath id="p57a4e5ea31">
   <rect x="61.632" y="54.072" width="190.742395" height="343.728"/>
  </clipPath>
  <clipPath id="pdd43849dad">
   <rect x="322.101337" y="54.072" width="141.290663" height="343.728"/>
  </clipPath>
 </defs>
</svg>
