<?xml version="1.0" encoding="utf-8" standalone="no"?>
<!DOCTYPE svg PUBLIC "-//W3C//DTD SVG 1.1//EN"
  "http://www.w3.org/Graphics/SVG/1.1/DTD/svg11.dtd">
<svg xmlns:xlink="http://www.w3.org/1999/xlink" width="547.051025pt" height="371.888906pt" viewBox="0 0 547.051025 371.888906" xmlns="http://www.w3.org/2000/svg" version="1.1">
 <metadata>
  <rdf:RDF xmlns:dc="http://purl.org/dc/elements/1.1/" xmlns:cc="http://creativecommons.org/ns#" xmlns:rdf="http://www.w3.org/1999/02/22-rdf-syntax-ns#">
   <cc:Work>
    <dc:type rdf:resource="http://purl.org/dc/dcmitype/StillImage"/>
    <dc:date>2026-07-18T00:58:59.370331</dc:date>
    <dc:format>image/svg+xml</dc:format>
    <dc:creator>
     <cc:Agent>
      <dc:title>Matplotlib v3.9.4, https://matplotlib.org/</dc:title>
     </cc:Agent>
    </dc:creator>
   </cc:Work>
  </rdf:RDF>
 </metadata>
 <defs>
  <style type="text/css">*{stroke-linejoin: round; stroke-linecap: butt}</style>
 </defs>
 <g id="figure_1">
  <g id="patch_1">
   <path d="M 0 371.888906
L 547.051025 371.888906
L 547.051025 -0
L 0 -0
z
" style="fill: #ffffff"/>
  </g>
  <g id="axes_1">
   <g id="patch_2">
    <path d="M 126.605 275.256
L 311.481618 275.256
L 311.481618 32.904
L 126.605 32.904
z
" style="fill: #ffffff"/>
   </g>
   <g id="PathCollection_1">
    <defs>
     <path id="mfc0b85b7b3" d="M 0 2.345208
C 0.621956 2.345208 1.218523 2.098102 1.658312 1.658312
C 2.098102 1.218523 2.345208 0.621956 2.345208 0
C 2.345208 -0.621956 2.098102 -1.218523 1.658312 -1.658312
C 1.218523 -2.098102 0.621956 -2.345208 0 -2.345208
C -0.621956 -2.345208 -1.218523 -2.098102 -1.658312 -1.658312
C -2.098102 -1.218523 -2.345208 -0.621956 -2.345208 0
C -2.345208 0.621956 -2.098102 1.218523 -1.658312 1.658312
C -1.218523 2.098102 -0.621956 2.345208 0 2.345208
z
" style="stroke: #ffffff; stroke-width: 0.4"/>
    </defs>
    <g clip-path="url(#p3c26f6b15d)">
     <use xlink:href="#mfc0b85b7b3" x="208.696058" y="51.810248" style="fill: #2f6b8a; stroke: #ffffff; stroke-width: 0.4"/>
    </g>
   </g>
   <g id="PathCollection_2">
    <g clip-path="url(#p3c26f6b15d)">
     <use xlink:href="#mfc0b85b7b3" x="220.928628" y="43.92" style="fill: #2f6b8a; stroke: #ffffff; stroke-width: 0.4"/>
    </g>
   </g>
   <g id="PathCollection_3">
    <g clip-path="url(#p3c26f6b15d)">
     <use xlink:href="#mfc0b85b7b3" x="165.19751" y="82.157355" style="fill: #2f6b8a; stroke: #ffffff; stroke-width: 0.4"/>
    </g>
   </g>
   <g id="PathCollection_4">
    <defs>
     <path id="m2ff37fe779" d="M 0 2.345208
C 0.621956 2.345208 1.218523 2.098102 1.658312 1.658312
C 2.098102 1.218523 2.345208 0.621956 2.345208 0
C 2.345208 -0.621956 2.098102 -1.218523 1.658312 -1.658312
C 1.218523 -2.098102 0.621956 -2.345208 0 -2.345208
C -0.621956 -2.345208 -1.218523 -2.098102 -1.658312 -1.658312
C -2.098102 -1.218523 -2.345208 -0.621956 -2.345208 0
C -2.345208 0.621956 -2.098102 1.218523 -1.658312 1.658312
C -1.218523 2.098102 -0.621956 2.345208 0 2.345208
z
" style="stroke: #ffffff; stroke-width: 0.4"/>
    </defs>
    <g clip-path="url(#p3c26f6b15d)">
     <use xlink:href="#m2ff37fe779" x="254.436095" y="74.267107" style="fill: #b24745; stroke: #ffffff; stroke-width: 0.4"/>
    </g>
   </g>
   <g id="PathCollection_5">
    <g clip-path="url(#p3c26f6b15d)">
     <use xlink:href="#mfc0b85b7b3" x="173.995434" y="112.504463" style="fill: #2f6b8a; stroke: #ffffff; stroke-width: 0.4"/>
    </g>
   </g>
   <g id="PathCollection_6">
    <g clip-path="url(#p3c26f6b15d)">
     <use xlink:href="#mfc0b85b7b3" x="194.662267" y="104.614215" style="fill: #2f6b8a; stroke: #ffffff; stroke-width: 0.4"/>
    </g>
   </g>
   <g id="PathCollection_7">
    <g clip-path="url(#p3c26f6b15d)">
     <use xlink:href="#m2ff37fe779" x="287.920529" y="142.85157" style="fill: #b24745; stroke: #ffffff; stroke-width: 0.4"/>
    </g>
   </g>
   <g id="PathCollection_8">
    <g clip-path="url(#p3c26f6b15d)">
     <use xlink:href="#m2ff37fe779" x="278.967268" y="134.961322" style="fill: #b24745; stroke: #ffffff; stroke-width: 0.4"/>
    </g>
   </g>
   <g id="PathCollection_9">
    <g clip-path="url(#p3c26f6b15d)">
     <use xlink:href="#m2ff37fe779" x="251.491947" y="173.198678" style="fill: #b24745; stroke: #ffffff; stroke-width: 0.4"/>
    </g>
   </g>
   <g id="PathCollection_10">
    <g clip-path="url(#p3c26f6b15d)">
     <use xlink:href="#mfc0b85b7b3" x="221.907182" y="165.30843" style="fill: #2f6b8a; stroke: #ffffff; stroke-width: 0.4"/>
    </g>
   </g>
   <g id="PathCollection_11">
    <g clip-path="url(#p3c26f6b15d)">
     <use xlink:href="#mfc0b85b7b3" x="222.260874" y="203.545785" style="fill: #2f6b8a; stroke: #ffffff; stroke-width: 0.4"/>
    </g>
   </g>
   <g id="PathCollection_12">
    <g clip-path="url(#p3c26f6b15d)">
     <use xlink:href="#m2ff37fe779" x="241.155304" y="195.655537" style="fill: #b24745; stroke: #ffffff; stroke-width: 0.4"/>
    </g>
   </g>
   <g id="PathCollection_13">
    <g clip-path="url(#p3c26f6b15d)">
     <use xlink:href="#mfc0b85b7b3" x="213.839575" y="233.892893" style="fill: #2f6b8a; stroke: #ffffff; stroke-width: 0.4"/>
    </g>
   </g>
   <g id="PathCollection_14">
    <g clip-path="url(#p3c26f6b15d)">
     <use xlink:href="#mfc0b85b7b3" x="216.481189" y="226.002645" style="fill: #2f6b8a; stroke: #ffffff; stroke-width: 0.4"/>
    </g>
   </g>
   <g id="PathCollection_15">
    <g clip-path="url(#p3c26f6b15d)">
     <use xlink:href="#m2ff37fe779" x="245.85629" y="264.24" style="fill: #b24745; stroke: #ffffff; stroke-width: 0.4"/>
    </g>
   </g>
   <g id="PathCollection_16">
    <g clip-path="url(#p3c26f6b15d)">
     <use xlink:href="#mfc0b85b7b3" x="230.008334" y="256.349752" style="fill: #2f6b8a; stroke: #ffffff; stroke-width: 0.4"/>
    </g>
   </g>
   <g id="matplotlib.axis_1">
    <g id="xtick_1">
     <g id="line2d_1">
      <defs>
       <path id="ma9bb38e1ea" d="M 0 0
L 0 3.5
" style="stroke: #000000; stroke-width: 0.8"/>
      </defs>
      <g>
       <use xlink:href="#ma9bb38e1ea" x="149.181814" y="275.256" style="stroke: #000000; stroke-width: 0.8"/>
      </g>
     </g>
     <g id="text_1">
      <text style="font: 8px 'Arial', 'DejaVu Sans', 'Liberation Sans', sans-serif; text-anchor: middle" x="149.181814" y="287.98225" transform="rotate(-0 149.181814 287.98225)">−0.75</text>
     </g>
    </g>
    <g id="xtick_2">
     <g id="line2d_2">
      <g>
       <use xlink:href="#ma9bb38e1ea" x="178.289232" y="275.256" style="stroke: #000000; stroke-width: 0.8"/>
      </g>
     </g>
     <g id="text_2">
      <text style="font: 8px 'Arial', 'DejaVu Sans', 'Liberation Sans', sans-serif; text-anchor: middle" x="178.289232" y="287.98225" transform="rotate(-0 178.289232 287.98225)">−0.50</text>
     </g>
    </g>
    <g id="xtick_3">
     <g id="line2d_3">
      <g>
       <use xlink:href="#ma9bb38e1ea" x="207.396651" y="275.256" style="stroke: #000000; stroke-width: 0.8"/>
      </g>
     </g>
     <g id="text_3">
      <text style="font: 8px 'Arial', 'DejaVu Sans', 'Liberation Sans', sans-serif; text-anchor: middle" x="207.396651" y="287.98225" transform="rotate(-0 207.396651 287.98225)">−0.25</text>
     </g>
    </g>
    <g id="xtick_4">
     <g id="line2d_4">
      <g>
       <use xlink:href="#ma9bb38e1ea" x="236.504069" y="275.256" style="stroke: #000000; stroke-width: 0.8"/>
      </g>
     </g>
     <g id="text_4">
      <text style="font: 8px 'Arial', 'DejaVu Sans', 'Liberation Sans', sans-serif; text-anchor: middle" x="236.504069" y="287.98225" transform="rotate(-0 236.504069 287.98225)">0.00</text>
     </g>
    </g>
    <g id="xtick_5">
     <g id="line2d_5">
      <g>
       <use xlink:href="#ma9bb38e1ea" x="265.611487" y="275.256" style="stroke: #000000; stroke-width: 0.8"/>
      </g>
     </g>
     <g id="text_5">
      <text style="font: 8px 'Arial', 'DejaVu Sans', 'Liberation Sans', sans-serif; text-anchor: middle" x="265.611487" y="287.98225" transform="rotate(-0 265.611487 287.98225)">0.25</text>
     </g>
    </g>
    <g id="xtick_6">
     <g id="line2d_6">
      <g>
       <use xlink:href="#ma9bb38e1ea" x="294.718906" y="275.256" style="stroke: #000000; stroke-width: 0.8"/>
      </g>
     </g>
     <g id="text_6">
      <text style="font: 8px 'Arial', 'DejaVu Sans', 'Liberation Sans', sans-serif; text-anchor: middle" x="294.718906" y="287.98225" transform="rotate(-0 294.718906 287.98225)">0.50</text>
     </g>
    </g>
    <g id="text_7">
     <text style="font: 8px 'Arial', 'DejaVu Sans', 'Liberation Sans', sans-serif; text-anchor: middle" x="219.043309" y="299.32225" transform="rotate(-0 219.043309 299.32225)">Exact gene contribution to T48 delta Z</text>
    </g>
   </g>
   <g id="matplotlib.axis_2">
    <g id="ytick_1">
     <g id="line2d_7">
      <defs>
       <path id="mc7d67e8831" d="M 0 0
L -3.5 0
" style="stroke: #000000; stroke-width: 0.8"/>
      </defs>
      <g>
       <use xlink:href="#mc7d67e8831" x="126.605" y="47.865124" style="stroke: #000000; stroke-width: 0.8"/>
      </g>
     </g>
     <g id="text_8">
      <text style="font: 6.4px 'Arial', 'DejaVu Sans', 'Liberation Sans', sans-serif; text-anchor: end" x="119.605" y="50.194624" transform="rotate(-0 119.605 50.194624)">SIG001  Sepsis MetaScore</text>
     </g>
    </g>
    <g id="ytick_2">
     <g id="line2d_8">
      <g>
       <use xlink:href="#mc7d67e8831" x="126.605" y="78.212231" style="stroke: #000000; stroke-width: 0.8"/>
      </g>
     </g>
     <g id="text_9">
      <text style="font: 6.4px 'Arial', 'DejaVu Sans', 'Liberation Sans', sans-serif; text-anchor: end" x="119.605" y="80.541731" transform="rotate(-0 119.605 80.541731)">SIG002  SeptiCyte LAB</text>
     </g>
    </g>
    <g id="ytick_3">
     <g id="line2d_9">
      <g>
       <use xlink:href="#mc7d67e8831" x="126.605" y="108.559339" style="stroke: #000000; stroke-width: 0.8"/>
      </g>
     </g>
     <g id="text_10">
      <text style="font: 6.4px 'Arial', 'DejaVu Sans', 'Liberation Sans', sans-serif; text-anchor: end" x="119.605" y="110.849839" transform="rotate(-0 119.605 110.849839)">SIG003  FAIM3:PLAC8</text>
     </g>
    </g>
    <g id="ytick_4">
     <g id="line2d_10">
      <g>
       <use xlink:href="#mc7d67e8831" x="126.605" y="138.906446" style="stroke: #000000; stroke-width: 0.8"/>
      </g>
     </g>
     <g id="text_11">
      <text style="font: 6.4px 'Arial', 'DejaVu Sans', 'Liberation Sans', sans-serif; text-anchor: end" x="119.605" y="141.196946" transform="rotate(-0 119.605 141.196946)">SIG004  sNIP</text>
     </g>
    </g>
    <g id="ytick_5">
     <g id="line2d_11">
      <g>
       <use xlink:href="#mc7d67e8831" x="126.605" y="169.253554" style="stroke: #000000; stroke-width: 0.8"/>
      </g>
     </g>
     <g id="text_12">
      <text style="font: 6.4px 'Arial', 'DejaVu Sans', 'Liberation Sans', sans-serif; text-anchor: end" x="119.605" y="171.544054" transform="rotate(-0 119.605 171.544054)">SIG022  Bacterial/Viral MetaScore</text>
     </g>
    </g>
    <g id="ytick_6">
     <g id="line2d_12">
      <g>
       <use xlink:href="#mc7d67e8831" x="126.605" y="199.600661" style="stroke: #000000; stroke-width: 0.8"/>
      </g>
     </g>
     <g id="text_13">
      <text style="font: 6.4px 'Arial', 'DejaVu Sans', 'Liberation Sans', sans-serif; text-anchor: end" x="119.605" y="201.930161" transform="rotate(-0 119.605 201.930161)">SIG023  Herberg two-transcript DRS</text>
     </g>
    </g>
    <g id="ytick_7">
     <g id="line2d_13">
      <g>
       <use xlink:href="#mc7d67e8831" x="126.605" y="229.947769" style="stroke: #000000; stroke-width: 0.8"/>
      </g>
     </g>
     <g id="text_14">
      <text style="font: 6.4px 'Arial', 'DejaVu Sans', 'Liberation Sans', sans-serif; text-anchor: end" x="119.605" y="232.277269" transform="rotate(-0 119.605 232.277269)">SIG033  Lin seven-gene mortality score</text>
     </g>
    </g>
    <g id="ytick_8">
     <g id="line2d_14">
      <g>
       <use xlink:href="#mc7d67e8831" x="126.605" y="260.294876" style="stroke: #000000; stroke-width: 0.8"/>
      </g>
     </g>
     <g id="text_15">
      <text style="font: 6.4px 'Arial', 'DejaVu Sans', 'Liberation Sans', sans-serif; text-anchor: end" x="119.605" y="262.585376" transform="rotate(-0 119.605 262.585376)">SIG034  Severe-or-Mild score</text>
     </g>
    </g>
   </g>
   <g id="line2d_15">
    <path d="M 192.403879 51.810248
L 224.988237 51.810248
" clip-path="url(#p3c26f6b15d)" style="fill: none; stroke: #2f6b8a; stroke-width: 1.3; stroke-linecap: square"/>
   </g>
   <g id="line2d_16">
    <path d="M 198.384629 43.92
L 243.472628 43.92
" clip-path="url(#p3c26f6b15d)" style="fill: none; stroke: #2f6b8a; stroke-width: 1.3; stroke-linecap: square"/>
   </g>
   <g id="line2d_17">
    <path d="M 135.008483 82.157355
L 195.386538 82.157355
" clip-path="url(#p3c26f6b15d)" style="fill: none; stroke: #2f6b8a; stroke-width: 1.3; stroke-linecap: square"/>
   </g>
   <g id="line2d_18">
    <path d="M 225.026943 74.267107
L 283.845246 74.267107
" clip-path="url(#p3c26f6b15d)" style="fill: none; stroke: #b24745; stroke-width: 1.3; stroke-linecap: square"/>
   </g>
   <g id="line2d_19">
    <path d="M 154.982216 112.504463
L 193.008652 112.504463
" clip-path="url(#p3c26f6b15d)" style="fill: none; stroke: #2f6b8a; stroke-width: 1.3; stroke-linecap: square"/>
   </g>
   <g id="line2d_20">
    <path d="M 169.338571 104.614215
L 219.985964 104.614215
" clip-path="url(#p3c26f6b15d)" style="fill: none; stroke: #2f6b8a; stroke-width: 1.3; stroke-linecap: square"/>
   </g>
   <g id="line2d_21">
    <path d="M 273.021021 142.85157
L 302.820038 142.85157
" clip-path="url(#p3c26f6b15d)" style="fill: none; stroke: #b24745; stroke-width: 1.3; stroke-linecap: square"/>
   </g>
   <g id="line2d_22">
    <path d="M 254.856402 134.961322
L 303.078135 134.961322
" clip-path="url(#p3c26f6b15d)" style="fill: none; stroke: #b24745; stroke-width: 1.3; stroke-linecap: square"/>
   </g>
   <g id="line2d_23">
    <path d="M 241.299924 173.198678
L 261.683969 173.198678
" clip-path="url(#p3c26f6b15d)" style="fill: none; stroke: #b24745; stroke-width: 1.3; stroke-linecap: square"/>
   </g>
   <g id="line2d_24">
    <path d="M 204.774889 165.30843
L 239.039476 165.30843
" clip-path="url(#p3c26f6b15d)" style="fill: none; stroke: #2f6b8a; stroke-width: 1.3; stroke-linecap: square"/>
   </g>
   <g id="line2d_25">
    <path d="M 205.620577 203.545785
L 238.90117 203.545785
" clip-path="url(#p3c26f6b15d)" style="fill: none; stroke: #2f6b8a; stroke-width: 1.3; stroke-linecap: square"/>
   </g>
   <g id="line2d_26">
    <path d="M 225.185291 195.655537
L 257.125317 195.655537
" clip-path="url(#p3c26f6b15d)" style="fill: none; stroke: #b24745; stroke-width: 1.3; stroke-linecap: square"/>
   </g>
   <g id="line2d_27">
    <path d="M 195.455068 233.892893
L 232.224082 233.892893
" clip-path="url(#p3c26f6b15d)" style="fill: none; stroke: #2f6b8a; stroke-width: 1.3; stroke-linecap: square"/>
   </g>
   <g id="line2d_28">
    <path d="M 190.608154 226.002645
L 242.354223 226.002645
" clip-path="url(#p3c26f6b15d)" style="fill: none; stroke: #2f6b8a; stroke-width: 1.3; stroke-linecap: square"/>
   </g>
   <g id="line2d_29">
    <path d="M 240.577624 264.24
L 251.134956 264.24
" clip-path="url(#p3c26f6b15d)" style="fill: none; stroke: #b24745; stroke-width: 1.3; stroke-linecap: square"/>
   </g>
   <g id="line2d_30">
    <path d="M 222.463267 256.349752
L 237.553402 256.349752
" clip-path="url(#p3c26f6b15d)" style="fill: none; stroke: #2f6b8a; stroke-width: 1.3; stroke-linecap: square"/>
   </g>
   <g id="line2d_31">
    <path d="M 236.504069 275.256
L 236.504069 32.904
" clip-path="url(#p3c26f6b15d)" style="fill: none; stroke-dasharray: 2.96,1.28; stroke-dashoffset: 0; stroke: #777777; stroke-width: 0.8"/>
   </g>
   <g id="patch_3">
    <path d="M 126.605 275.256
L 126.605 32.904
" style="fill: none; stroke: #000000; stroke-width: 0.8; stroke-linejoin: miter; stroke-linecap: square"/>
   </g>
   <g id="patch_4">
    <path d="M 126.605 275.256
L 311.481618 275.256
" style="fill: none; stroke: #000000; stroke-width: 0.8; stroke-linejoin: miter; stroke-linecap: square"/>
   </g>
   <g id="text_16">
    <text style="font: 5.8px 'Arial', 'DejaVu Sans', 'Liberation Sans', sans-serif; text-anchor: end" x="205.696058" y="53.309639" transform="rotate(-0 205.696058 53.309639)">CEACAM1</text>
   </g>
   <g id="text_17">
    <text style="font: 5.8px 'Arial', 'DejaVu Sans', 'Liberation Sans', sans-serif; text-anchor: end" x="217.928628" y="45.419391" transform="rotate(-0 217.928628 45.419391)">RPGRIP1</text>
   </g>
   <g id="text_18">
    <text style="font: 5.8px 'Arial', 'DejaVu Sans', 'Liberation Sans', sans-serif; text-anchor: end" x="162.19751" y="83.656746" transform="rotate(-0 162.19751 83.656746)">PLAC8</text>
   </g>
   <g id="text_19">
    <text style="font: 5.8px 'Arial', 'DejaVu Sans', 'Liberation Sans', sans-serif; text-anchor: start" x="257.436095" y="75.766498" transform="rotate(-0 257.436095 75.766498)">PLA2G7</text>
   </g>
   <g id="text_20">
    <text style="font: 5.8px 'Arial', 'DejaVu Sans', 'Liberation Sans', sans-serif; text-anchor: end" x="170.995434" y="114.003853" transform="rotate(-0 170.995434 114.003853)">PLAC8</text>
   </g>
   <g id="text_21">
    <text style="font: 5.8px 'Arial', 'DejaVu Sans', 'Liberation Sans', sans-serif; text-anchor: end" x="191.662267" y="106.113606" transform="rotate(-0 191.662267 106.113606)">FAIM3</text>
   </g>
   <g id="text_22">
    <text style="font: 5.8px 'Arial', 'DejaVu Sans', 'Liberation Sans', sans-serif; text-anchor: start" x="290.920529" y="144.350961" transform="rotate(-0 290.920529 144.350961)">NLRP1</text>
   </g>
   <g id="text_23">
    <text style="font: 5.8px 'Arial', 'DejaVu Sans', 'Liberation Sans', sans-serif; text-anchor: start" x="281.967268" y="136.460713" transform="rotate(-0 281.967268 136.460713)">IDNK</text>
   </g>
   <g id="text_24">
    <text style="font: 5.8px 'Arial', 'DejaVu Sans', 'Liberation Sans', sans-serif; text-anchor: start" x="254.491947" y="174.698068" transform="rotate(-0 254.491947 174.698068)">HK3</text>
   </g>
   <g id="text_25">
    <text style="font: 5.8px 'Arial', 'DejaVu Sans', 'Liberation Sans', sans-serif; text-anchor: end" x="218.907182" y="166.80782" transform="rotate(-0 218.907182 166.80782)">IFI27</text>
   </g>
   <g id="text_26">
    <text style="font: 5.8px 'Arial', 'DejaVu Sans', 'Liberation Sans', sans-serif; text-anchor: end" x="219.260874" y="205.045176" transform="rotate(-0 219.260874 205.045176)">FAM89A</text>
   </g>
   <g id="text_27">
    <text style="font: 5.8px 'Arial', 'DejaVu Sans', 'Liberation Sans', sans-serif; text-anchor: start" x="244.155304" y="197.154928" transform="rotate(-0 244.155304 197.154928)">IFI44L</text>
   </g>
   <g id="text_28">
    <text style="font: 5.8px 'Arial', 'DejaVu Sans', 'Liberation Sans', sans-serif; text-anchor: end" x="210.839575" y="235.392283" transform="rotate(-0 210.839575 235.392283)">LTB</text>
   </g>
   <g id="text_29">
    <text style="font: 5.8px 'Arial', 'DejaVu Sans', 'Liberation Sans', sans-serif; text-anchor: end" x="213.481189" y="227.502035" transform="rotate(-0 213.481189 227.502035)">TMSB10</text>
   </g>
   <g id="text_30">
    <text style="font: 5.8px 'Arial', 'DejaVu Sans', 'Liberation Sans', sans-serif; text-anchor: start" x="248.85629" y="265.739391" transform="rotate(-0 248.85629 265.739391)">DEFA4</text>
   </g>
   <g id="text_31">
    <text style="font: 5.8px 'Arial', 'DejaVu Sans', 'Liberation Sans', sans-serif; text-anchor: end" x="227.008334" y="257.849143" transform="rotate(-0 227.008334 257.849143)">OASL</text>
   </g>
   <g id="text_32">
    <text style="font: 700 11px 'Arial', 'DejaVu Sans', 'Liberation Sans', sans-serif; text-anchor: start" x="108.117338" y="21.039139" transform="rotate(-0 108.117338 21.039139)">a</text>
   </g>
   <g id="text_33">
    <text style="font: 700 9.6px 'Arial', 'DejaVu Sans', 'Liberation Sans', sans-serif; text-anchor: start" x="126.605" y="26.904" transform="rotate(-0 126.605 26.904)">Two largest pooled mathematical contributions</text>
   </g>
  </g>
  <g id="axes_2">
   <g id="patch_5">
    <path d="M 383.930142 275.256
L 528.365 275.256
L 528.365 32.904
L 383.930142 32.904
z
" style="fill: #ffffff"/>
   </g>
   <g id="PathCollection_17">
    <defs>
     <path id="m0970722771" d="M 0 5.129194
C 1.360278 5.129194 2.665026 4.58875 3.626888 3.626888
C 4.58875 2.665026 5.129194 1.360278 5.129194 0
C 5.129194 -1.360278 4.58875 -2.665026 3.626888 -3.626888
C 2.665026 -4.58875 1.360278 -5.129194 0 -5.129194
C -1.360278 -5.129194 -2.665026 -4.58875 -3.626888 -3.626888
C -4.58875 -2.665026 -5.129194 -1.360278 -5.129194 0
C -5.129194 1.360278 -4.58875 2.665026 -3.626888 3.626888
C -2.665026 4.58875 -1.360278 5.129194 0 5.129194
z
" style="stroke: #ffffff; stroke-width: 0.7"/>
    </defs>
    <g clip-path="url(#p7b73d241da)">
     <use xlink:href="#m0970722771" x="438.77368" y="192.972939" style="fill: #7a5aa6; stroke: #ffffff; stroke-width: 0.7"/>
    </g>
   </g>
   <g id="PathCollection_18">
    <defs>
     <path id="m47fd7b9a89" d="M 0 5.33797
C 1.415646 5.33797 2.773502 4.775528 3.774515 3.774515
C 4.775528 2.773502 5.33797 1.415646 5.33797 0
C 5.33797 -1.415646 4.775528 -2.773502 3.774515 -3.774515
C 2.773502 -4.775528 1.415646 -5.33797 0 -5.33797
C -1.415646 -5.33797 -2.773502 -4.775528 -3.774515 -3.774515
C -4.775528 -2.773502 -5.33797 -1.415646 -5.33797 0
C -5.33797 1.415646 -4.775528 2.773502 -3.774515 3.774515
C -2.773502 4.775528 -1.415646 5.33797 0 5.33797
z
" style="stroke: #ffffff; stroke-width: 0.7"/>
    </defs>
    <g clip-path="url(#p7b73d241da)">
     <use xlink:href="#m47fd7b9a89" x="476.519531" y="135.487997" style="fill: #2f6b8a; stroke: #ffffff; stroke-width: 0.7"/>
    </g>
   </g>
   <g id="PathCollection_19">
    <defs>
     <path id="m048a3a6499" d="M 0 4.865988
C 1.290475 4.865988 2.52827 4.353277 3.440773 3.440773
C 4.353277 2.52827 4.865988 1.290475 4.865988 0
C 4.865988 -1.290475 4.353277 -2.52827 3.440773 -3.440773
C 2.52827 -4.353277 1.290475 -4.865988 0 -4.865988
C -1.290475 -4.865988 -2.52827 -4.353277 -3.440773 -3.440773
C -4.353277 -2.52827 -4.865988 -1.290475 -4.865988 0
C -4.865988 1.290475 -4.353277 2.52827 -3.440773 3.440773
C -2.52827 4.353277 -1.290475 4.865988 0 4.865988
z
" style="stroke: #ffffff; stroke-width: 0.7"/>
    </defs>
    <g clip-path="url(#p7b73d241da)">
     <use xlink:href="#m048a3a6499" x="503.869784" y="264.943149" style="fill: #b24745; stroke: #ffffff; stroke-width: 0.7"/>
    </g>
   </g>
   <g id="PathCollection_20">
    <defs>
     <path id="mc61a345989" d="M 0 4.865975
C 1.290472 4.865975 2.528263 4.353265 3.440764 3.440764
C 4.353265 2.528263 4.865975 1.290472 4.865975 0
C 4.865975 -1.290472 4.353265 -2.528263 3.440764 -3.440764
C 2.528263 -4.353265 1.290472 -4.865975 0 -4.865975
C -1.290472 -4.865975 -2.528263 -4.353265 -3.440764 -3.440764
C -4.353265 -2.528263 -4.865975 -1.290472 -4.865975 0
C -4.865975 1.290472 -4.353265 2.528263 -3.440764 3.440764
C -2.528263 4.353265 -1.290472 4.865975 0 4.865975
z
" style="stroke: #ffffff; stroke-width: 0.7"/>
    </defs>
    <g clip-path="url(#p7b73d241da)">
     <use xlink:href="#mc61a345989" x="491.476631" y="179.981431" style="fill: #b24745; stroke: #ffffff; stroke-width: 0.7"/>
    </g>
   </g>
   <g id="PathCollection_21">
    <defs>
     <path id="me7cf323f1c" d="M 0 4.798037
C 1.272454 4.798037 2.492963 4.292485 3.392724 3.392724
C 4.292485 2.492963 4.798037 1.272454 4.798037 0
C 4.798037 -1.272454 4.292485 -2.492963 3.392724 -3.392724
C 2.492963 -4.292485 1.272454 -4.798037 0 -4.798037
C -1.272454 -4.798037 -2.492963 -4.292485 -3.392724 -3.392724
C -4.292485 -2.492963 -4.798037 -1.272454 -4.798037 0
C -4.798037 1.272454 -4.292485 2.492963 -3.392724 3.392724
C -2.492963 4.292485 -1.272454 4.798037 0 4.798037
z
" style="stroke: #ffffff; stroke-width: 0.7"/>
    </defs>
    <g clip-path="url(#p7b73d241da)">
     <use xlink:href="#me7cf323f1c" x="454.365503" y="134.135291" style="fill: #7a5aa6; stroke: #ffffff; stroke-width: 0.7"/>
    </g>
   </g>
   <g id="PathCollection_22">
    <defs>
     <path id="ma30d62b6f6" d="M 0 4.358669
C 1.155932 4.358669 2.264676 3.899412 3.082044 3.082044
C 3.899412 2.264676 4.358669 1.155932 4.358669 0
C 4.358669 -1.155932 3.899412 -2.264676 3.082044 -3.082044
C 2.264676 -3.899412 1.155932 -4.358669 0 -4.358669
C -1.155932 -4.358669 -2.264676 -3.899412 -3.082044 -3.082044
C -3.899412 -2.264676 -4.358669 -1.155932 -4.358669 0
C -4.358669 1.155932 -3.899412 2.264676 -3.082044 3.082044
C -2.264676 3.899412 -1.155932 4.358669 0 4.358669
z
" style="stroke: #ffffff; stroke-width: 0.7"/>
    </defs>
    <g clip-path="url(#p7b73d241da)">
     <use xlink:href="#ma30d62b6f6" x="512.470837" y="264.943149" style="fill: #b24745; stroke: #ffffff; stroke-width: 0.7"/>
    </g>
   </g>
   <g id="PathCollection_23">
    <defs>
     <path id="m5a3e9cc258" d="M 0 5.22826
C 1.386551 5.22826 2.716499 4.677378 3.696938 3.696938
C 4.677378 2.716499 5.22826 1.386551 5.22826 0
C 5.22826 -1.386551 4.677378 -2.716499 3.696938 -3.696938
C 2.716499 -4.677378 1.386551 -5.22826 0 -5.22826
C -1.386551 -5.22826 -2.716499 -4.677378 -3.696938 -3.696938
C -4.677378 -2.716499 -5.22826 -1.386551 -5.22826 0
C -5.22826 1.386551 -4.677378 2.716499 -3.696938 3.696938
C -2.716499 4.677378 -1.386551 5.22826 0 5.22826
z
" style="stroke: #ffffff; stroke-width: 0.7"/>
    </defs>
    <g clip-path="url(#p7b73d241da)">
     <use xlink:href="#m5a3e9cc258" x="445.875449" y="107.745836" style="fill: #7a5aa6; stroke: #ffffff; stroke-width: 0.7"/>
    </g>
   </g>
   <g id="PathCollection_24">
    <defs>
     <path id="m1bcec0fb42" d="M 0 5.689331
C 1.508828 5.689331 2.956062 5.089867 4.022964 4.022964
C 5.089867 2.956062 5.689331 1.508828 5.689331 0
C 5.689331 -1.508828 5.089867 -2.956062 4.022964 -4.022964
C 2.956062 -5.089867 1.508828 -5.689331 0 -5.689331
C -1.508828 -5.689331 -2.956062 -5.089867 -4.022964 -4.022964
C -5.089867 -2.956062 -5.689331 -1.508828 -5.689331 0
C -5.689331 1.508828 -5.089867 2.956062 -4.022964 4.022964
C -2.956062 5.089867 -1.508828 5.689331 0 5.689331
z
" style="stroke: #ffffff; stroke-width: 0.7"/>
    </defs>
    <g clip-path="url(#p7b73d241da)">
     <use xlink:href="#m1bcec0fb42" x="405.455908" y="65.524991" style="fill: #7a5aa6; stroke: #ffffff; stroke-width: 0.7"/>
    </g>
   </g>
   <g id="matplotlib.axis_3">
    <g id="xtick_7">
     <g id="line2d_32">
      <g>
       <use xlink:href="#ma9bb38e1ea" x="388.968568" y="275.256" style="stroke: #000000; stroke-width: 0.8"/>
      </g>
     </g>
     <g id="text_34">
      <text style="font: 8px 'Arial', 'DejaVu Sans', 'Liberation Sans', sans-serif; text-anchor: middle" x="388.968568" y="287.98225" transform="rotate(-0 388.968568 287.98225)">0.0</text>
     </g>
    </g>
    <g id="xtick_8">
     <g id="line2d_33">
      <g>
       <use xlink:href="#ma9bb38e1ea" x="422.558069" y="275.256" style="stroke: #000000; stroke-width: 0.8"/>
      </g>
     </g>
     <g id="text_35">
      <text style="font: 8px 'Arial', 'DejaVu Sans', 'Liberation Sans', sans-serif; text-anchor: middle" x="422.558069" y="287.98225" transform="rotate(-0 422.558069 287.98225)">0.2</text>
     </g>
    </g>
    <g id="xtick_9">
     <g id="line2d_34">
      <g>
       <use xlink:href="#ma9bb38e1ea" x="456.147571" y="275.256" style="stroke: #000000; stroke-width: 0.8"/>
      </g>
     </g>
     <g id="text_36">
      <text style="font: 8px 'Arial', 'DejaVu Sans', 'Liberation Sans', sans-serif; text-anchor: middle" x="456.147571" y="287.98225" transform="rotate(-0 456.147571 287.98225)">0.4</text>
     </g>
    </g>
    <g id="xtick_10">
     <g id="line2d_35">
      <g>
       <use xlink:href="#ma9bb38e1ea" x="489.737073" y="275.256" style="stroke: #000000; stroke-width: 0.8"/>
      </g>
     </g>
     <g id="text_37">
      <text style="font: 8px 'Arial', 'DejaVu Sans', 'Liberation Sans', sans-serif; text-anchor: middle" x="489.737073" y="287.98225" transform="rotate(-0 489.737073 287.98225)">0.6</text>
     </g>
    </g>
    <g id="xtick_11">
     <g id="line2d_36">
      <g>
       <use xlink:href="#ma9bb38e1ea" x="523.326575" y="275.256" style="stroke: #000000; stroke-width: 0.8"/>
      </g>
     </g>
     <g id="text_38">
      <text style="font: 8px 'Arial', 'DejaVu Sans', 'Liberation Sans', sans-serif; text-anchor: middle" x="523.326575" y="287.98225" transform="rotate(-0 523.326575 287.98225)">0.8</text>
     </g>
    </g>
    <g id="text_39">
     <text style="font: 8px 'Arial', 'DejaVu Sans', 'Liberation Sans', sans-serif; text-anchor: middle" x="456.147571" y="299.2985" transform="rotate(-0 456.147571 299.2985)">Median patient dominance ratio</text>
    </g>
   </g>
   <g id="matplotlib.axis_4">
    <g id="ytick_9">
     <g id="line2d_37">
      <g>
       <use xlink:href="#mc7d67e8831" x="383.930142" y="264.943149" style="stroke: #000000; stroke-width: 0.8"/>
      </g>
     </g>
     <g id="text_40">
      <text style="font: 8px 'Arial', 'DejaVu Sans', 'Liberation Sans', sans-serif; text-anchor: end" x="376.930142" y="267.806274" transform="rotate(-0 376.930142 267.806274)">0.0</text>
     </g>
    </g>
    <g id="ytick_10">
     <g id="line2d_38">
      <g>
       <use xlink:href="#mc7d67e8831" x="383.930142" y="213.378894" style="stroke: #000000; stroke-width: 0.8"/>
      </g>
     </g>
     <g id="text_41">
      <text style="font: 8px 'Arial', 'DejaVu Sans', 'Liberation Sans', sans-serif; text-anchor: end" x="376.930142" y="216.242019" transform="rotate(-0 376.930142 216.242019)">0.2</text>
     </g>
    </g>
    <g id="ytick_11">
     <g id="line2d_39">
      <g>
       <use xlink:href="#mc7d67e8831" x="383.930142" y="161.814638" style="stroke: #000000; stroke-width: 0.8"/>
      </g>
     </g>
     <g id="text_42">
      <text style="font: 8px 'Arial', 'DejaVu Sans', 'Liberation Sans', sans-serif; text-anchor: end" x="376.930142" y="164.677763" transform="rotate(-0 376.930142 164.677763)">0.4</text>
     </g>
    </g>
    <g id="ytick_12">
     <g id="line2d_40">
      <g>
       <use xlink:href="#mc7d67e8831" x="383.930142" y="110.250383" style="stroke: #000000; stroke-width: 0.8"/>
      </g>
     </g>
     <g id="text_43">
      <text style="font: 8px 'Arial', 'DejaVu Sans', 'Liberation Sans', sans-serif; text-anchor: end" x="376.930142" y="113.113508" transform="rotate(-0 376.930142 113.113508)">0.6</text>
     </g>
    </g>
    <g id="ytick_13">
     <g id="line2d_41">
      <g>
       <use xlink:href="#mc7d67e8831" x="383.930142" y="58.686128" style="stroke: #000000; stroke-width: 0.8"/>
      </g>
     </g>
     <g id="text_44">
      <text style="font: 8px 'Arial', 'DejaVu Sans', 'Liberation Sans', sans-serif; text-anchor: end" x="376.930142" y="61.549253" transform="rotate(-0 376.930142 61.549253)">0.8</text>
     </g>
    </g>
    <g id="text_45">
     <text style="font: 8px 'Arial', 'DejaVu Sans', 'Liberation Sans', sans-serif; text-anchor: middle" x="360.220142" y="154.08" transform="rotate(-90 360.220142 154.08)">Median patient cancellation index</text>
    </g>
   </g>
   <g id="line2d_42">
    <path d="M 489.737073 275.256
L 489.737073 32.904
" clip-path="url(#p7b73d241da)" style="fill: none; stroke-dasharray: 2.96,1.28; stroke-dashoffset: 0; stroke: #aaaaaa; stroke-width: 0.8"/>
   </g>
   <g id="line2d_43">
    <path d="M 383.930142 136.032511
L 528.365 136.032511
" clip-path="url(#p7b73d241da)" style="fill: none; stroke-dasharray: 2.96,1.28; stroke-dashoffset: 0; stroke: #aaaaaa; stroke-width: 0.8"/>
   </g>
   <g id="patch_6">
    <path d="M 383.930142 275.256
L 383.930142 32.904
" style="fill: none; stroke: #000000; stroke-width: 0.8; stroke-linejoin: miter; stroke-linecap: square"/>
   </g>
   <g id="patch_7">
    <path d="M 383.930142 275.256
L 528.365 275.256
" style="fill: none; stroke: #000000; stroke-width: 0.8; stroke-linejoin: miter; stroke-linecap: square"/>
   </g>
   <g id="text_46">
    <text style="font: 700 6.6px 'Arial', 'DejaVu Sans', 'Liberation Sans', sans-serif; text-anchor: start" x="442.77368" y="188.972939" transform="rotate(-0 442.77368 188.972939)">SIG001</text>
   </g>
   <g id="text_47">
    <text style="font: 700 6.6px 'Arial', 'DejaVu Sans', 'Liberation Sans', sans-serif; text-anchor: start" x="481.519531" y="125.487997" transform="rotate(-0 481.519531 125.487997)">SIG002</text>
   </g>
   <g id="text_48">
    <text style="font: 700 6.6px 'Arial', 'DejaVu Sans', 'Liberation Sans', sans-serif; text-anchor: end" x="496.869784" y="254.943149" transform="rotate(-0 496.869784 254.943149)">SIG003</text>
   </g>
   <g id="text_49">
    <text style="font: 700 6.6px 'Arial', 'DejaVu Sans', 'Liberation Sans', sans-serif; text-anchor: start" x="495.476631" y="175.981431" transform="rotate(-0 495.476631 175.981431)">SIG004</text>
   </g>
   <g id="text_50">
    <text style="font: 700 6.6px 'Arial', 'DejaVu Sans', 'Liberation Sans', sans-serif; text-anchor: end" x="447.365503" y="125.135291" transform="rotate(-0 447.365503 125.135291)">SIG022</text>
   </g>
   <g id="text_51">
    <text style="font: 700 6.6px 'Arial', 'DejaVu Sans', 'Liberation Sans', sans-serif; text-anchor: start" x="517.470837" y="255.943149" transform="rotate(-0 517.470837 255.943149)">SIG023</text>
   </g>
   <g id="text_52">
    <text style="font: 700 6.6px 'Arial', 'DejaVu Sans', 'Liberation Sans', sans-serif; text-anchor: start" x="449.875449" y="103.745836" transform="rotate(-0 449.875449 103.745836)">SIG033</text>
   </g>
   <g id="text_53">
    <text style="font: 700 6.6px 'Arial', 'DejaVu Sans', 'Liberation Sans', sans-serif; text-anchor: start" x="409.455908" y="61.524991" transform="rotate(-0 409.455908 61.524991)">SIG034</text>
   </g>
   <g id="text_54">
    <text style="font: 700 11px 'Arial', 'DejaVu Sans', 'Liberation Sans', sans-serif; text-anchor: start" x="369.486657" y="21.039139" transform="rotate(-0 369.486657 21.039139)">b</text>
   </g>
   <g id="text_55">
    <text style="font: 700 9.6px 'Arial', 'DejaVu Sans', 'Liberation Sans', sans-serif; text-anchor: start" x="383.930142" y="26.904" transform="rotate(-0 383.930142 26.904)">Frozen architecture classification</text>
   </g>
   <g id="legend_1">
    <g id="line2d_44">
     <defs>
      <path id="mb7bdd6852f" d="M 0 2.75
C 0.729309 2.75 1.428845 2.460243 1.944544 1.944544
C 2.460243 1.428845 2.75 0.729309 2.75 0
C 2.75 -0.729309 2.460243 -1.428845 1.944544 -1.944544
C 1.428845 -2.460243 0.729309 -2.75 0 -2.75
C -0.729309 -2.75 -1.428845 -2.460243 -1.944544 -1.944544
C -2.460243 -1.428845 -2.75 -0.729309 -2.75 0
C -2.75 0.729309 -2.460243 1.428845 -1.944544 1.944544
C -1.428845 2.460243 -0.729309 2.75 0 2.75
z
" style="stroke: #2f6b8a"/>
     </defs>
     <g>
      <use xlink:href="#mb7bdd6852f" x="421.772516" y="328.076114" style="fill: #2f6b8a; stroke: #2f6b8a"/>
     </g>
    </g>
    <g id="text_56">
     <text style="font: 5.3px 'Arial', 'DejaVu Sans', 'Liberation Sans', sans-serif; text-anchor: start" x="431.312516" y="329.931114" transform="rotate(-0 431.312516 329.931114)">Consistent Multigene Drift</text>
    </g>
    <g id="line2d_45">
     <defs>
      <path id="m08212f93bf" d="M 0 2.75
C 0.729309 2.75 1.428845 2.460243 1.944544 1.944544
C 2.460243 1.428845 2.75 0.729309 2.75 0
C 2.75 -0.729309 2.460243 -1.428845 1.944544 -1.944544
C 1.428845 -2.460243 0.729309 -2.75 0 -2.75
C -0.729309 -2.75 -1.428845 -2.460243 -1.944544 -1.944544
C -2.460243 -1.428845 -2.75 -0.729309 -2.75 0
C -2.75 0.729309 -2.460243 1.428845 -1.944544 1.944544
C -1.428845 2.460243 -0.729309 2.75 0 2.75
z
" style="stroke: #b24745"/>
     </defs>
     <g>
      <use xlink:href="#m08212f93bf" x="421.772516" y="335.699833" style="fill: #b24745; stroke: #b24745"/>
     </g>
    </g>
    <g id="text_57">
     <text style="font: 5.3px 'Arial', 'DejaVu Sans', 'Liberation Sans', sans-serif; text-anchor: start" x="431.312516" y="337.554833" transform="rotate(-0 431.312516 337.554833)">Single Gene Dominant Drift</text>
    </g>
    <g id="line2d_46">
     <defs>
      <path id="m3452e7290a" d="M 0 2.75
C 0.729309 2.75 1.428845 2.460243 1.944544 1.944544
C 2.460243 1.428845 2.75 0.729309 2.75 0
C 2.75 -0.729309 2.460243 -1.428845 1.944544 -1.944544
C 1.428845 -2.460243 0.729309 -2.75 0 -2.75
C -0.729309 -2.75 -1.428845 -2.460243 -1.944544 -1.944544
C -2.460243 -1.428845 -2.75 -0.729309 -2.75 0
C -2.75 0.729309 -2.460243 1.428845 -1.944544 1.944544
C -1.428845 2.460243 -0.729309 2.75 0 2.75
z
" style="stroke: #7a5aa6"/>
     </defs>
     <g>
      <use xlink:href="#m3452e7290a" x="421.772516" y="343.323552" style="fill: #7a5aa6; stroke: #7a5aa6"/>
     </g>
    </g>
    <g id="text_58">
     <text style="font: 5.3px 'Arial', 'DejaVu Sans', 'Liberation Sans', sans-serif; text-anchor: start" x="431.312516" y="345.178552" transform="rotate(-0 431.312516 345.178552)">Cohort Dependent Drift</text>
    </g>
   </g>
  </g>
  <g id="text_59">
   <text style="fill: #5f6b76; font: 6.2px 'Arial', 'DejaVu Sans', 'Liberation Sans', sans-serif; text-anchor: start" x="66.989" y="363.384" transform="rotate(-0 66.989 363.384)">Contributions exactly reconstruct each fixed score change but do not identify causal genes. Point size in panel b encodes median absolute contribution sum.</text>
  </g>
  <g id="text_60">
   <text style="font: 700 12px 'Arial', 'DejaVu Sans', 'Liberation Sans', sans-serif; text-anchor: start" x="72.173" y="15.935625" transform="rotate(-0 72.173 15.935625)">Gene-level architecture of T48 score change</text>
  </g>
 </g>
 <defs>
  <clipPath id="p3c26f6b15d">
   <rect x="126.605" y="32.904" width="184.876618" height="242.352"/>
  </clipPath>
  <clipPath id="p7b73d241da">
   <rect x="383.930142" y="32.904" width="144.434858" height="242.352"/>
  </clipPath>
 </defs>
</svg>
